<svg xmlns="http://www.w3.org/2000/svg" version="1.1" xmlns:xlink="http://www.w3.org/1999/xlink" xmlns:svgjs="http://svgjs.dev/svgjs" width="1000" height="1000"><g clip-path="url(#SvgjsClipPath1182)"><rect width="1000" height="1000" fill="#ffffff"></rect><g transform="matrix(3.1358885017421603,0,0,3.1358885017421603,50,253.83275261324042)"><svg xmlns="http://www.w3.org/2000/svg" version="1.1" xmlns:xlink="http://www.w3.org/1999/xlink" xmlns:svgjs="http://svgjs.dev/svgjs" width="287" height="157"><svg width="287" height="157" viewBox="0 0 287 157" fill="none" xmlns="http://www.w3.org/2000/svg">
<path d="M44.375 0C56.5833 0 66.6094 2.47396 74.4583 7.41667C82.3177 12.3646 86.3438 19.6875 86.5417 29.3958V31.0625H57.8333V30.5C57.8333 27.724 56.8125 25.4115 54.7708 23.5625C52.7396 21.7188 49.6458 20.7917 45.4792 20.7917C41.4219 20.7917 38.3021 21.3958 36.125 22.6042C33.9583 23.8021 32.875 25.2813 32.875 27.0417C32.875 29.5313 34.3542 31.375 37.3125 32.5833C40.2708 33.7813 45.026 35.0313 51.5833 36.3333C59.2604 37.9063 65.5729 39.5417 70.5208 41.25C75.4635 42.9583 79.7813 45.7604 83.4792 49.6458C87.1719 53.5208 89.0677 58.7865 89.1667 65.4375C89.1667 76.7188 85.3542 85.0833 77.7292 90.5417C70.1042 96 59.9063 98.7292 47.1458 98.7292C32.2708 98.7292 20.6927 96.2396 12.4167 91.25C4.13542 86.25 0 77.4167 0 64.75H28.9792C28.9792 69.5573 30.2292 72.7708 32.7292 74.3958C35.2292 76.0104 39.1094 76.8125 44.375 76.8125C48.2604 76.8125 51.4792 76.3958 54.0208 75.5625C56.5625 74.7292 57.8333 73.0208 57.8333 70.4375C57.8333 68.1354 56.4219 66.4063 53.6042 65.25C50.7813 64.0833 46.1771 62.8542 39.7917 61.5625C32.026 59.8958 25.6042 58.1667 20.5208 56.375C15.4375 54.5729 11 51.5938 7.20833 47.4375C3.41667 43.2708 1.52083 37.625 1.52083 30.5C1.52083 20.0573 5.5625 12.3646 13.6458 7.41667C21.7396 2.47396 31.9844 0 44.375 0Z" fill="#009A92"></path>
<path d="M163.208 1.66675C168.01 1.66675 172.422 2.66154 176.437 4.64591C180.463 6.6355 183.656 9.43237 186.021 13.0417C188.38 16.6407 189.562 20.6615 189.562 25.1042C189.562 36.8438 184.239 44.2292 173.604 47.2709V47.8334C185.713 50.6147 191.771 58.5626 191.771 71.6876C191.771 76.6772 190.541 81.0938 188.083 84.9376C185.635 88.7709 182.291 91.7501 178.041 93.8751C173.791 96.0001 169.125 97.0626 164.041 97.0626H99.708V1.66675H163.208ZM130.354 38.8126H151.416C153.458 38.8126 155.146 38.099 156.479 36.6667C157.823 35.2397 158.5 33.4584 158.5 31.3334V29.9376C158.5 27.9115 157.802 26.1824 156.416 24.7501C155.026 23.323 153.359 22.6042 151.416 22.6042H130.354V38.8126ZM130.354 74.8751H153.646C155.672 74.8751 157.354 74.1615 158.687 72.7293C160.031 71.3022 160.708 69.5209 160.708 67.3959V66.0001C160.708 63.8751 160.031 62.099 158.687 60.6667C157.354 59.2397 155.672 58.5209 153.646 58.5209H130.354V74.8751Z" fill="#009A92"></path>
<path d="M256.389 1.66675C262.306 1.66675 267.566 3.03133 272.181 5.75008C276.806 8.47404 280.41 12.2188 282.993 16.9792C285.587 21.7449 286.889 27.0834 286.889 33.0001V34.7917C286.889 40.7084 285.587 46.0782 282.993 50.8959C280.41 55.7032 276.806 59.4688 272.181 62.1876C267.566 64.9115 262.306 66.2709 256.389 66.2709H233.514V97.0626H202.868V1.66675H256.389ZM233.514 43.9584H246.118C249.353 43.9584 251.774 43.1251 253.389 41.4584C255.014 39.7917 255.826 37.5313 255.826 34.6667V33.5626C255.826 30.6042 255.014 28.323 253.389 26.7084C251.774 25.0834 249.353 24.2709 246.118 24.2709H233.514V43.9584Z" fill="#009A92"></path>
<path d="M7.19401 125.312C10.6315 125.312 12.7357 123.624 12.7357 120.916C12.7357 118.583 11.1107 117.416 8.94401 116.895L6.15234 116.208C5.06901 115.937 4.52734 115.395 4.52734 114.645C4.52734 113.708 5.33984 112.958 6.83984 112.958C8.36068 112.958 9.50651 113.749 9.67318 115.166H12.5065C12.319 112.416 10.194 110.583 6.81901 110.583C3.23568 110.583 1.61068 112.729 1.61068 114.958C1.61068 116.916 2.86068 118.291 5.02734 118.833L7.61068 119.479C8.94401 119.812 9.73568 120.187 9.73568 121.187C9.73568 122.291 8.75651 122.937 7.17318 122.937C5.31901 122.937 4.19401 122.062 4.11068 120.52H1.27734C1.33984 123.541 3.65234 125.312 7.19401 125.312Z" fill="#2A2A2A"></path>
<path d="M19.6628 119.729C19.4961 120.333 19.2878 121.041 19.0794 121.77C18.8711 121.041 18.6628 120.312 18.4753 119.708L16.8503 114.729H13.8086L17.7461 125.354L17.6628 125.645C17.4336 126.249 17.0378 126.499 16.2253 126.499H14.8919V128.854H17.2044C18.6419 128.854 19.4961 128.416 20.0794 126.666L24.1211 114.729H21.1836L19.6628 119.729Z" fill="#2A2A2A"></path>
<path d="M32.139 115.749C31.4515 114.916 30.4932 114.479 29.2015 114.479C26.9098 114.479 25.0557 116.437 25.0557 119.749C25.0557 123.02 26.8682 125.187 29.4098 125.187C30.6598 125.187 31.6598 124.666 32.3473 123.604L32.4515 124.854H34.889V110.895H32.139V115.749ZM29.9932 122.749C28.6598 122.749 27.7223 121.624 27.7223 119.749C27.7223 117.916 28.6598 116.77 29.9932 116.77C31.3265 116.77 32.264 117.937 32.264 119.749C32.264 121.583 31.3265 122.749 29.9932 122.749Z" fill="#2A2A2A"></path>
<path d="M42.9225 114.479C41.6309 114.479 40.6725 115.02 40.0059 116.104L39.9642 114.729H37.2559V124.854H40.0267V119.437C40.0267 117.937 40.8392 116.979 42.0059 116.979C42.985 116.979 43.485 117.645 43.485 118.708V124.854H46.235V118.062C46.235 115.874 45.0267 114.479 42.9225 114.479Z" fill="#2A2A2A"></path>
<path d="M58.2253 120.145C58.2253 116.604 56.0378 114.479 53.0378 114.479C49.9336 114.479 48.0586 116.791 48.0586 119.749C48.0586 122.854 49.9753 125.187 53.3294 125.187C55.6003 125.187 57.2878 124.124 57.9753 121.937L55.2461 121.729C54.9128 122.624 54.2461 123.041 53.2669 123.041C51.9128 123.041 51.0169 122.145 50.9128 120.624H58.2253V120.145ZM53.1419 116.499C54.3919 116.499 55.2253 117.333 55.3711 118.729H50.8919C51.0169 117.354 51.8919 116.499 53.1419 116.499Z" fill="#2A2A2A"></path>
<path d="M65.0221 119.729C64.8555 120.333 64.6471 121.041 64.4388 121.77C64.2305 121.041 64.0221 120.312 63.8346 119.708L62.2096 114.729H59.168L63.1055 125.354L63.0221 125.645C62.793 126.249 62.3971 126.499 61.5846 126.499H60.2513V128.854H62.5638C64.0013 128.854 64.8555 128.416 65.4388 126.666L69.4805 114.729H66.543L65.0221 119.729Z" fill="#2A2A2A"></path>
<path d="M84.3753 117.27C85.8753 116.833 86.6462 115.749 86.6462 114.312C86.6462 112.166 85.0003 110.895 82.4795 110.895H75.9795V124.854H82.5212C85.542 124.854 87.0837 122.979 87.0837 120.749C87.0837 119.187 86.3337 117.77 84.3753 117.27ZM81.9587 113.249C83.2503 113.249 83.8128 113.854 83.8128 114.729C83.8128 115.604 83.2503 116.291 81.8545 116.291H78.8753V113.249H81.9587ZM78.8753 122.395V118.645H82.1462C83.4795 118.645 84.2295 119.312 84.2295 120.479C84.2295 121.604 83.542 122.395 82.0003 122.395H78.8753Z" fill="#2A2A2A"></path>
<path d="M98.1182 124.854C97.8265 124.354 97.7432 123.687 97.7432 122.729V118.27C97.7432 115.77 96.264 114.499 93.3682 114.499C90.639 114.499 89.2432 115.541 89.0557 117.749L91.5765 117.791C91.7223 116.854 92.2432 116.458 93.389 116.458C94.4723 116.458 95.0973 116.812 95.0973 117.562V118.312L91.5557 119.02C89.514 119.416 88.4932 120.458 88.4932 122.062C88.4932 123.916 89.8473 125.145 91.9932 125.145C93.3265 125.145 94.4307 124.666 95.1182 123.833C95.1598 124.187 95.2432 124.499 95.3265 124.854H98.1182ZM92.7848 123.104C91.764 123.104 91.1807 122.624 91.1807 121.895C91.1807 121.229 91.6598 120.791 92.4932 120.624L95.0973 120.062V120.812C95.0973 122.312 94.0973 123.104 92.7848 123.104Z" fill="#2A2A2A"></path>
<path d="M104.405 125.187C106.967 125.187 108.697 123.77 109.092 121.374H106.405C106.072 122.458 105.426 123.02 104.447 123.02C103.051 123.02 102.217 121.895 102.217 119.833C102.217 117.77 103.051 116.645 104.447 116.645C105.447 116.645 106.092 117.166 106.405 118.27H109.092C108.697 115.874 107.009 114.479 104.405 114.479C101.426 114.479 99.5508 116.583 99.5508 119.833C99.5508 123.083 101.426 125.187 104.405 125.187Z" fill="#2A2A2A"></path>
<path d="M120.497 114.729H117.038L114.788 117.249L113.518 118.812L113.601 116.479V110.895H110.83V124.854H113.601V121.499L114.663 120.395L115.372 121.687L117.309 124.854H120.58L116.559 118.708L120.497 114.729Z" fill="#2A2A2A"></path>
<path d="M127.287 113.104V110.895H125.828C123.724 110.895 122.599 112.041 122.599 114.124V114.791L121.183 114.729V116.77L122.599 116.708V124.854H125.37V116.708L127.287 116.77V114.729L125.37 114.791V114.27C125.37 113.479 125.724 113.104 126.516 113.104H127.287Z" fill="#2A2A2A"></path>
<path d="M131.431 124.854V110.895H128.66V124.854H131.431Z" fill="#2A2A2A"></path>
<path d="M138.439 125.187C141.46 125.187 143.606 122.895 143.606 119.833C143.606 116.77 141.46 114.479 138.439 114.479C135.398 114.479 133.252 116.77 133.252 119.833C133.252 122.895 135.398 125.187 138.439 125.187ZM138.439 123.02C136.877 123.02 135.919 121.77 135.919 119.833C135.919 117.895 136.877 116.645 138.439 116.645C139.981 116.645 140.939 117.895 140.939 119.833C140.939 121.77 139.981 123.02 138.439 123.02Z" fill="#2A2A2A"></path>
<path d="M155.163 119.229L154.705 121.77L154.226 119.187L153.08 114.729H150.642L149.496 119.229L149.038 121.77L148.559 119.229L147.434 114.729H144.538L147.538 124.854H150.163L151.621 119.229L151.871 117.895L152.101 119.229L153.559 124.854H156.184L159.184 114.729H156.288L155.163 119.229Z" fill="#2A2A2A"></path>
<path d="M175.867 121.687C176.909 120.166 177.367 118.791 177.554 117.499H175.179C175.054 118.333 174.742 119.104 174.346 119.812L172.471 117.499C173.909 116.624 174.929 115.354 174.929 113.833C174.929 111.999 173.367 110.562 171.138 110.562C168.992 110.562 167.409 111.874 167.409 113.729C167.409 114.562 167.721 115.374 168.825 116.77L168.909 116.895C166.554 117.958 165.575 119.374 165.575 121.249C165.575 123.583 167.429 125.145 170.075 125.145C171.721 125.145 172.95 124.562 174.138 123.562L175.138 124.854H178.45L175.867 121.687ZM171.221 112.833C171.825 112.833 172.388 113.208 172.388 113.999C172.388 114.666 171.971 115.124 171.013 115.708L170.596 115.208C170.2 114.708 170.054 114.333 170.054 113.958C170.054 113.249 170.554 112.833 171.221 112.833ZM170.388 122.749C169.159 122.749 168.45 122.041 168.45 121.041C168.45 120.458 168.7 119.583 170.367 118.749L172.742 121.791C171.929 122.479 171.179 122.749 170.388 122.749Z" fill="#2A2A2A"></path>
<path d="M190.521 110.895H184.979V124.854H187.875V119.999H190.271C193.625 119.999 195.396 118.229 195.396 115.374C195.396 112.583 193.542 110.895 190.521 110.895ZM187.875 117.541V113.354H190.313C191.646 113.354 192.584 114.062 192.584 115.416C192.584 116.749 191.729 117.541 190.021 117.541H187.875Z" fill="#2A2A2A"></path>
<path d="M199.637 124.854V110.895H196.866V124.854H199.637Z" fill="#2A2A2A"></path>
<path d="M208.229 120.145C208.229 121.666 207.417 122.624 206.25 122.624C205.271 122.624 204.771 121.958 204.771 120.895V114.729H202V121.52C202 123.708 203.229 125.104 205.313 125.104C206.625 125.104 207.583 124.583 208.25 123.479L208.292 124.854H210.979V114.729H208.229V120.145Z" fill="#2A2A2A"></path>
<path d="M224.72 114.479C223.345 114.479 222.386 115.062 221.741 116.312C221.303 115.166 220.303 114.479 218.845 114.479C217.636 114.479 216.72 114.999 216.095 116.041L216.053 114.729H213.345V124.854H216.116V119.437C216.116 117.937 216.845 116.979 217.928 116.979C218.886 116.979 219.282 117.729 219.282 118.645V124.854H222.032V119.437C222.032 117.937 222.761 116.979 223.845 116.979C224.803 116.979 225.199 117.729 225.199 118.645V124.854H227.97V118.083C227.97 115.979 226.824 114.479 224.72 114.479Z" fill="#2A2A2A"></path>
<path d="M236.021 114.479C234.729 114.479 233.771 114.916 233.083 115.749V110.895H230.312V124.854H232.771L232.875 123.604C233.563 124.666 234.563 125.187 235.813 125.187C238.354 125.187 240.167 123.02 240.167 119.749C240.167 116.437 238.313 114.479 236.021 114.479ZM235.229 122.749C233.896 122.749 232.958 121.583 232.958 119.749C232.958 117.937 233.896 116.77 235.229 116.77C236.563 116.77 237.5 117.916 237.5 119.749C237.5 121.624 236.563 122.749 235.229 122.749Z" fill="#2A2A2A"></path>
<path d="M244.762 113.395V110.895H241.992V113.395H244.762ZM244.742 124.854V114.729H241.971V124.854H244.742Z" fill="#2A2A2A"></path>
<path d="M252.771 114.479C251.479 114.479 250.521 115.02 249.854 116.104L249.813 114.729H247.104V124.854H249.875V119.437C249.875 117.937 250.688 116.979 251.854 116.979C252.834 116.979 253.334 117.645 253.334 118.708V124.854H256.084V118.062C256.084 115.874 254.875 114.479 252.771 114.479Z" fill="#2A2A2A"></path>
<path d="M265.199 115.999C264.532 114.999 263.532 114.479 262.241 114.479C259.761 114.479 257.907 116.374 257.907 119.604C257.907 122.729 259.72 124.854 262.241 124.854C263.386 124.854 264.303 124.437 264.991 123.624V125.02C264.991 126.291 264.47 127.02 262.866 127.02C261.678 127.02 260.991 126.624 260.824 125.687H258.282C258.47 127.791 260.032 129.083 262.928 129.083C265.97 129.083 267.741 127.645 267.741 124.979V114.729H265.303L265.199 115.999ZM262.845 122.499C261.511 122.499 260.574 121.395 260.574 119.604C260.574 117.812 261.511 116.708 262.845 116.708C264.178 116.708 265.116 117.833 265.116 119.604C265.116 121.374 264.178 122.499 262.845 122.499Z" fill="#2A2A2A"></path>
<path d="M9.00423 156.512C14.3167 156.512 17.2542 152.533 17.2542 145.824C17.2542 139.262 14.3167 135.387 9.00423 135.387C3.69173 135.387 0.733398 139.262 0.733398 145.824C0.733398 152.533 3.69173 156.512 9.00423 156.512ZM9.00423 152.949C6.33757 152.949 5.00423 150.679 5.00423 145.908C5.00423 141.179 6.33757 138.929 9.00423 138.929C11.6709 138.929 13.0042 141.179 13.0042 145.908C13.0042 150.679 11.6709 152.949 9.00423 152.949Z" fill="#FF6633"></path>
<path d="M39.3617 135.845H34.9242L25.9033 147.449V151.804H35.2367V156.054H39.3617V151.804H42.3825V148.408H39.3617V135.845ZM29.445 148.408L35.1533 141.054H35.2367V148.408H29.445Z" fill="#FF6633"></path>
<path d="M60.1139 156.054V135.845H56.3848L56.3639 136.095C56.2389 137.095 55.9056 137.908 55.3014 138.47C54.6348 139.137 53.6348 139.47 52.3014 139.47H50.8223V142.283H55.9056V156.054H60.1139Z" fill="#FF6633"></path>
<path d="M78.8197 156.533C83.9238 156.533 86.653 153.783 86.653 150.137C86.653 147.47 85.1738 145.637 82.4447 145.033V144.97C84.3822 144.304 85.528 142.699 85.528 140.699C85.528 137.574 82.903 135.387 78.403 135.387C73.8197 135.387 71.2988 137.595 71.1322 142.074H75.1322C75.2363 139.554 76.528 138.783 78.2155 138.783C80.153 138.783 81.2988 139.783 81.2988 141.366C81.2988 143.012 80.0697 143.949 78.2572 143.949H76.9447V147.074H78.4238C80.8405 147.074 82.1947 148.22 82.1947 150.054C82.1947 151.762 81.0072 153.074 78.7363 153.074C76.2988 153.074 74.903 151.595 74.8197 149.179H70.6738C70.7572 153.324 73.2572 156.533 78.8197 156.533Z" fill="#FF6633"></path>
<path d="M117.143 156.512C121.914 156.512 125.164 153.574 125.164 149.241C125.164 145.033 122.185 142.387 118.31 142.387C116.747 142.387 115.331 142.824 114.289 143.512L114.227 143.47L114.914 139.533H123.789V135.845H111.789L109.914 146.595L113.81 147.158C114.727 146.366 115.706 145.949 117.039 145.949C119.685 145.949 120.956 147.533 120.956 149.408C120.956 151.387 119.497 152.929 117.143 152.929C115.268 152.929 113.935 152.012 113.497 150.345L109.352 150.679C109.914 154.283 112.914 156.512 117.143 156.512Z" fill="#FF6633"></path>
<path d="M147.625 135.845H143.188L134.167 147.449V151.804H143.5V156.054H147.625V151.804H150.646V148.408H147.625V135.845ZM137.709 148.408L143.417 141.054H143.5V148.408H137.709Z" fill="#FF6633"></path>
<path d="M168.649 142.262C166.42 142.262 164.586 143.158 163.378 144.783C163.524 140.47 165.086 138.741 167.67 138.741C169.315 138.741 170.649 139.637 170.961 140.97H174.982C174.524 137.616 171.836 135.387 167.67 135.387C162.357 135.387 159.315 139.095 159.315 146.22C159.315 149.554 160.128 152.158 161.649 153.929C163.128 155.637 165.357 156.533 167.92 156.533C172.482 156.533 175.732 153.574 175.732 149.304C175.732 145.179 172.92 142.262 168.649 142.262ZM167.899 153.012C166.753 153.012 165.795 152.616 165.107 151.908C164.461 151.262 164.086 150.324 164.086 149.241C164.086 147.074 165.607 145.574 167.795 145.574C169.94 145.574 171.524 147.074 171.524 149.304C171.524 151.199 170.295 153.012 167.899 153.012Z" fill="#FF6633"></path>
<path d="M204.098 152.533C204.285 151.804 204.889 151.345 206.514 150.262L209.264 148.408C211.889 146.658 213.41 144.47 213.41 141.741C213.41 137.929 210.473 135.387 206.077 135.387C201.598 135.387 198.889 138.054 198.889 142.574V142.929H202.952V142.366C202.952 139.991 204.139 138.866 205.993 138.866C207.743 138.866 208.993 139.929 208.993 141.949C208.993 143.533 208.202 144.533 206.785 145.574L202.931 148.408C200.139 150.449 198.66 152.533 198.66 156.054H213.598V152.533H204.098Z" fill="#FF6633"></path>
<path d="M231.538 156.054C231.851 149.408 233.643 144.97 239.33 139.324V135.845H223.205V139.616H234.538C229.268 144.845 226.83 150.574 226.83 156.054H231.538Z" fill="#FF6633"></path>
<path d="M256.666 156.054C256.979 149.408 258.771 144.97 264.458 139.324V135.845H248.333V139.616H259.666C254.396 144.845 251.958 150.574 251.958 156.054H256.666Z" fill="#FF6633"></path>
</svg></svg></g></g><defs><clipPath id="SvgjsClipPath1182"><rect width="1000" height="1000" x="0" y="0" rx="0" ry="0"></rect></clipPath></defs></svg>