<svg width="80" height="72" viewBox="0 0 80 72" fill="none" xmlns="http://www.w3.org/2000/svg">
<path d="M51.3404 44.7015C50.8404 44.4007 50.2388 44.5999 50.0396 45.0999C49.7388 45.5999 49.9381 46.2015 50.4381 46.4007C53.1373 47.9007 58.0397 51.2991 61.2391 57.5027C62.2391 59.4011 63.0399 61.5027 63.5399 63.7019C63.6414 64.1004 64.0399 64.4012 64.4383 64.4012H64.6375C65.1375 64.2996 65.4383 63.7019 65.3367 63.202C64.7352 60.8036 63.9383 58.6004 62.8367 56.5028C59.5398 49.9012 54.2387 46.3035 51.3404 44.7015Z" fill="#F8FAFC"/>
<path d="M1.03942 71.2015C1.53942 71.2015 2.03942 70.8031 2.03942 70.2015V4.40054C2.03942 3.5021 2.73864 2.70134 3.73862 2.70134H13.7386C14.6371 2.70134 15.4378 3.50212 15.4378 4.40054V70.1975C15.4378 70.6975 15.8363 71.1975 16.4378 71.1975C16.9378 71.1975 17.4378 70.7991 17.4378 70.1975V46.8025H35.4378C35.8363 49.0017 37.7386 50.7009 40.0394 50.7009H43.0394C43.5394 50.7009 44.0394 50.3025 44.0394 49.7009V47.5993C46.141 48.9977 48.8402 51.2985 50.7386 55.0993C51.3402 56.2009 51.8402 57.4977 52.137 58.7985C48.3362 59.5993 45.637 62.9001 45.637 66.7985C45.637 67.7985 45.8362 68.6969 46.137 69.5993C46.2386 69.9978 46.637 70.2009 47.0355 70.2009C47.137 70.2009 47.2347 70.2009 47.3362 70.0993C47.8362 69.9001 48.137 69.2986 47.9378 68.7985C47.7386 68.0993 47.5394 67.4001 47.5394 66.6969C47.5394 63.3961 50.141 60.5953 53.4378 60.3961H53.5393H53.6409C53.7424 60.3961 53.7424 60.3961 53.8401 60.2946C53.9417 60.2946 53.9417 60.193 53.9417 60.193L54.0432 60.0915C54.0432 59.9899 54.1448 59.9899 54.1448 59.8922C54.1448 59.7907 54.1448 59.7907 54.2463 59.693V59.4938V59.3922V59.2907V59.1891C53.8479 57.3883 53.1447 55.5875 52.3479 53.9899C49.8479 49.1891 46.1487 46.4899 43.8479 45.0915V38.1931C49.2463 39.3923 56.6489 42.1931 63.6489 48.0915C72.3481 55.4899 76.2509 64.1935 78.0469 70.2905C78.1485 70.689 78.5469 70.9897 78.9454 70.9897H79.2462C79.7462 70.7905 80.0469 70.2905 79.9454 69.7905C78.047 63.4897 73.9454 54.3925 64.9454 46.6885C57.4454 40.2901 49.5474 37.4893 43.8434 36.2905L43.8395 21.3995C43.8395 20.8995 43.441 20.3995 42.8395 20.3995H39.8395C37.5387 20.3995 35.6403 22.0987 35.2379 24.2979H17.2379V4.39994C17.2379 2.39994 15.6363 0.79834 13.6363 0.79834H3.63627C1.63627 0.79834 0.034668 2.39994 0.034668 4.39994V70.2979C0.038574 70.8018 0.437009 71.2003 1.03857 71.2003L1.03942 71.2015ZM37.2384 45.8035V25.1045C37.2384 23.6045 38.4376 22.4053 39.9376 22.4053H42.0392V48.8033H39.9376C38.4376 48.8033 37.2384 47.6041 37.2384 46.1041V45.8035ZM17.3404 26.3035H35.2384V44.9055L17.3404 44.9016V26.3035Z" fill="#F8FAFC"/>
<path d="M45.8403 29.2014C46.7388 29.7014 49.8403 31.5022 51.1411 31.5022C52.8403 31.5022 54.3403 30.1038 54.3403 28.303C54.3403 26.6038 52.9419 25.1038 51.1411 25.1038C49.7427 25.1038 46.7427 26.9046 45.8403 27.4046C45.5396 27.6038 45.3403 27.9046 45.3403 28.2053C45.3403 28.7014 45.5396 29.0022 45.8403 29.2014ZM51.1411 27.2014C51.8404 27.2014 52.3403 27.7014 52.3403 28.4006C52.3403 29.0998 51.8403 29.5998 51.1411 29.5998C50.7427 29.5998 49.5395 29.0998 48.2427 28.4006C49.5396 27.7013 50.7388 27.2014 51.1411 27.2014Z" fill="#F8FAFC"/>
<path d="M62.4375 32.3035C62.1367 32.202 61.7383 32.3035 61.5391 32.6043C61.3398 32.8035 61.2383 33.2059 61.2383 33.5027C61.5391 34.5027 62.8399 39.6043 64.1367 40.9011C64.9375 41.7019 65.9375 42.1003 67.0351 42.1003C68.0351 42.1003 69.1367 41.7019 69.9335 40.9011C71.5351 39.2995 71.5351 36.7995 69.9335 35.2019C68.539 33.9011 63.4375 32.6042 62.4375 32.3035ZM68.5391 39.6043C67.7383 40.4051 66.4375 40.4051 65.5391 39.6043C65.0391 39.1043 64.1407 36.8035 63.5391 34.7059C65.6407 35.3075 67.9375 36.1043 68.4375 36.7059C69.3398 37.4012 69.3399 38.8036 68.5391 39.6043Z" fill="#F8FAFC"/>
<path d="M58.7388 23.0025C59.7388 23.6041 64.5396 26.4009 66.5396 26.4009C68.8404 26.4009 70.8404 24.5025 70.8404 22.1001C70.8404 19.7017 68.942 17.7993 66.5396 17.7993C64.5396 17.7993 59.7388 20.6001 58.7388 21.1977C58.438 21.3969 58.2388 21.6977 58.2388 21.9985C58.2388 22.5024 58.438 22.8033 58.7388 23.0025ZM66.5396 19.9009C67.8404 19.9009 68.8404 20.9009 68.8404 22.2017C68.8404 23.5025 67.8404 24.5025 66.5396 24.5025C65.7388 24.5025 63.2388 23.3033 61.2388 22.2017C63.2388 21.0025 65.6411 19.9009 66.5396 19.9009Z" fill="#F8FAFC"/>
</svg>
