<svg width="74" height="64" viewBox="0 0 74 64" fill="none" xmlns="http://www.w3.org/2000/svg">
<path d="M59.8571 54.8571H57.5714V34.2857C57.5714 24.203 49.3685 16 39.2857 16H34.7143C24.6315 16 16.4286 24.203 16.4286 34.2857V54.8571H14.1429C13.5114 54.8571 13 55.3686 13 56V62.8571C13 63.4886 13.5114 64 14.1429 64H59.8571C60.4886 64 61 63.4886 61 62.8571V56C61 55.3686 60.4886 54.8571 59.8571 54.8571ZM18.7143 34.2857C18.7143 25.4632 25.8914 18.2857 34.7143 18.2857H39.2857C48.1082 18.2857 55.2857 25.4629 55.2857 34.2857V54.8571H42.7139V43.7029C44.8025 42.0257 46.1425 39.4543 46.1425 36.5714C46.1425 31.5314 42.0396 27.4286 36.9996 27.4286C31.9568 27.4286 27.8568 31.5314 27.8568 36.5714C27.8568 39.4514 29.1968 42.0228 31.2853 43.7029V54.8571H18.7136L18.7143 34.2857ZM33.5711 54.8571V45.0458C34.631 45.4743 35.7882 45.7172 36.9996 45.7172C38.214 45.7172 39.3682 45.4772 40.4282 45.0458V54.8571H33.5711ZM36.9996 43.4286C33.2168 43.4286 30.1425 40.3543 30.1425 36.5714C30.1425 32.7886 33.2168 29.7143 36.9996 29.7143C40.7825 29.7143 43.8568 32.7886 43.8568 36.5714C43.8568 40.3543 40.7825 43.4286 36.9996 43.4286ZM58.7143 61.7143H15.2857V57.1429H58.7143V61.7143Z" fill="#F8FAFC"/>
<path d="M10.7139 35.429H1.57108C0.939652 35.429 0.428223 35.9404 0.428223 36.5718C0.428223 37.2032 0.939652 37.7147 1.57108 37.7147H10.7139C11.3454 37.7147 11.8568 37.2032 11.8568 36.5718C11.8568 35.9404 11.3454 35.429 10.7139 35.429Z" fill="#F8FAFC"/>
<path d="M72.4288 35.429H63.2859C62.6545 35.429 62.1431 35.9404 62.1431 36.5718C62.1431 37.2032 62.6545 37.7147 63.2859 37.7147H72.4288C73.0602 37.7147 73.5716 37.2032 73.5716 36.5718C73.5716 35.9404 73.0602 35.429 72.4288 35.429Z" fill="#F8FAFC"/>
<path d="M59.7658 24.5717C59.9601 24.5717 60.1544 24.5202 60.3373 24.4174L68.2572 19.846C68.8057 19.5317 68.9915 18.8317 68.6743 18.286C68.36 17.7374 67.66 17.5517 67.1143 17.8688L59.1944 22.4403C58.6458 22.7545 58.4601 23.4545 58.7773 24.0003C58.9887 24.366 59.3716 24.5717 59.7687 24.5717H59.7658Z" fill="#F8FAFC"/>
<path d="M49.572 14.7969C49.752 14.8998 49.9491 14.9512 50.1434 14.9512C50.5377 14.9512 50.9205 14.7455 51.1348 14.3798L55.7063 6.45989C56.0206 5.91131 55.8348 5.21419 55.2891 4.8999C54.7406 4.58561 54.0434 4.77133 53.7291 5.31704L49.1577 13.2369C48.8434 13.7855 49.0291 14.4826 49.5748 14.7969H49.572Z" fill="#F8FAFC"/>
<path d="M36.9998 11.4286C37.6312 11.4286 38.1426 10.9171 38.1426 10.2857V1.14286C38.1426 0.511429 37.6312 0 36.9998 0C36.3684 0 35.8569 0.511429 35.8569 1.14286V10.2857C35.8569 10.9171 36.3684 11.4286 36.9998 11.4286Z" fill="#F8FAFC"/>
<path d="M22.8688 14.3771C23.0802 14.7428 23.4631 14.9485 23.8602 14.9485C24.0545 14.9485 24.2488 14.8971 24.4316 14.7942C24.9802 14.4799 25.1659 13.7799 24.8488 13.2342L20.2774 5.31429C19.9631 4.76572 19.2631 4.58001 18.7174 4.89715C18.1688 5.21144 17.9831 5.91142 18.3002 6.45714L22.8717 14.3771H22.8688Z" fill="#F8FAFC"/>
<path d="M5.74579 19.8458L13.6657 24.4172C13.8457 24.5201 14.0428 24.5715 14.2371 24.5715C14.6314 24.5715 15.0143 24.3658 15.2286 24.0001C15.5429 23.4515 15.3571 22.7544 14.8114 22.4401L6.89153 17.8686C6.34296 17.5544 5.64583 17.7401 5.33154 18.2858C5.01725 18.8344 5.20297 19.5315 5.74868 19.8458H5.74579Z" fill="#F8FAFC"/>
</svg>
