<svg width="80" height="80" viewBox="0 0 80 80" fill="none" xmlns="http://www.w3.org/2000/svg">
<path d="M28.1023 18.352C28.1023 11.852 33.4031 6.454 40.0003 6.454C46.6019 6.454 51.8983 11.7548 51.8983 18.352C51.8983 18.9536 52.3983 19.4536 52.9999 19.4536C53.6015 19.4536 54.1015 18.9536 54.1015 18.352C54.1015 10.5512 47.8007 4.25 39.9995 4.25C32.1983 4.25 25.8975 10.5508 25.8975 18.352C25.8975 20.2504 26.2959 22.0512 26.9991 23.7504C27.1983 24.1488 27.6006 24.4496 27.9991 24.4496C28.1006 24.4496 28.2998 24.4496 28.3975 24.3481C28.9991 24.1488 29.1983 23.4496 28.9991 22.8481C28.3975 21.352 28.1006 19.852 28.1006 18.352L28.1023 18.352Z" fill="#F8FAFC"/>
<path d="M43.6997 18.352C43.6997 16.352 42.0005 14.6528 40.0005 14.6528C38.0005 14.6528 36.3013 16.2544 36.3013 18.352C36.3013 18.9536 36.5005 19.5512 36.6998 20.0512L29.6021 27.0512C29.2036 27.4497 29.2036 28.1528 29.6021 28.6528C29.8013 28.852 30.1021 28.9536 30.4028 28.9536C30.7036 28.9536 31.0044 28.852 31.2036 28.6528L38.3052 21.5512C38.8052 21.852 39.4068 21.9497 40.0044 21.9497C42.0005 21.9497 43.6997 20.352 43.6997 18.352ZM38.5005 18.352C38.5005 17.5513 39.1997 16.852 40.0005 16.852C40.8013 16.852 41.5005 17.5513 41.5005 18.352C41.5005 19.1528 40.8013 19.852 40.0005 19.852C39.1997 19.7505 38.5005 19.1528 38.5005 18.352Z" fill="#F8FAFC"/>
<path d="M8.69926 50.75H1.69926C1.0977 50.75 0.597656 51.25 0.597656 51.8516V74.0506C0.597656 74.6522 1.09766 75.1522 1.69926 75.1522H8.69926C9.30082 75.1522 9.80086 74.6522 9.80086 74.0506V71.449H25.3009C28.3009 76.5506 33.6993 79.949 39.9999 79.949C46.3005 79.949 51.8009 76.5506 54.6989 71.449H70.1989V74.0506C70.1989 74.6522 70.6989 75.1522 71.3005 75.1522H78.3005C78.902 75.1522 79.4021 74.6522 79.4021 74.0506V70.3514L79.3982 55.5504V51.9488C79.3982 51.3473 78.8982 50.8472 78.2966 50.8472H71.2966C70.695 50.8472 70.195 51.3472 70.195 51.9488V54.5504H54.6989C53.6989 52.8512 52.4997 51.3512 50.9997 50.152V42.652C50.9997 42.0505 50.4998 41.5504 49.8982 41.5504H44.4997V36.152C52.3981 34.152 58.3007 26.9528 58.3007 18.453C58.3007 8.25003 50.1015 0.0510254 39.9997 0.0510254C29.8979 0.0510254 21.6987 8.25023 21.6987 18.352C21.6987 26.852 27.5971 34.051 35.4997 36.051V41.4494H30.1013C29.4998 41.4494 28.9997 41.9494 28.9997 42.551V50.051C27.4997 51.3518 26.3005 52.8518 25.3005 54.4494H9.80055V51.8478C9.80055 51.2502 9.30086 50.75 8.69926 50.75ZM7.60156 55.4492V73.0512H2.80076V52.9492H7.60156V55.4492ZM72.3986 70.5512V53.0512H77.1994V73.0512H72.3986V70.5512ZM70.1994 56.6532V69.3522H55.8014C56.6021 67.3522 57.0006 65.2506 57.0006 62.9538C57.0006 60.7546 56.6021 58.5554 55.8014 56.5554L70.1994 56.5515V56.6532ZM24.0004 18.3522C24.0004 9.55143 31.1996 2.35223 40.0004 2.35223C48.8012 2.35223 56.0004 9.55143 56.0004 18.3522C56.0004 27.153 48.8012 34.3522 40.0004 34.3522C31.1996 34.3522 24.0004 27.153 24.0004 18.3522ZM42.1994 36.4502V41.4502H37.801V36.4502C38.5002 36.5518 39.301 36.5518 40.0002 36.5518C40.6994 36.5518 41.5002 36.4502 42.1994 36.4502ZM31.1994 43.5518H48.6994V48.3526C46.0978 46.8526 43.0978 45.9542 39.8986 45.9542C36.6994 45.9542 33.6994 46.8527 31.0978 48.3526L31.1017 43.5518H31.1994ZM40.0002 48.1534C48.1994 48.1534 54.8012 54.8526 54.8012 62.9544C54.8012 71.1536 48.102 77.7554 40.0002 77.7554C31.8984 77.7554 25.1992 71.0562 25.1992 62.9544C25.1992 54.8528 31.8008 48.1534 40.0002 48.1534ZM24.1992 56.6534C23.3984 58.6534 23 60.755 23 63.0518C23 65.251 23.3984 67.4502 24.1992 69.4502H9.80116V56.6532L24.1992 56.6534Z" fill="#F8FAFC"/>
<path d="M40.0006 72.852C43.5006 72.852 46.399 69.9536 46.399 66.4536C46.399 63.352 41.5006 54.6526 41.0006 53.6526C40.6021 52.9534 39.5006 52.9534 39.1022 53.6526C38.5006 54.6526 33.7038 63.3518 33.7038 66.4536C33.6022 69.9497 36.5006 72.852 40.0006 72.852ZM40.0006 56.551C41.899 60.051 44.1998 64.8518 44.1998 66.4494C44.1998 68.7502 42.3014 70.6486 40.0006 70.6486C37.6998 70.6486 35.8014 68.7502 35.8014 66.4494C35.8014 64.8517 38.1022 60.051 40.0006 56.551Z" fill="#F8FAFC"/>
</svg>
