<svg width="48" height="72" viewBox="0 0 48 72" fill="none" xmlns="http://www.w3.org/2000/svg">
<path d="M30.9676 72H36.361C36.9043 72 37.3428 71.5615 37.3428 71.0182V66.744H38.1479C38.6912 66.744 39.1297 66.3055 39.1297 65.7622V61.1804C43.9472 61.0495 47.8221 57.1025 47.8221 52.2524V8.94109C47.8221 4.01236 43.8097 0 38.881 0H9.11882C4.1901 0 0.177734 4.01236 0.177734 8.94109V52.2524C0.177734 57.096 4.05919 61.0495 8.8701 61.1804V65.7622C8.8701 66.3055 9.30864 66.744 9.85192 66.744H10.657V71.0182C10.657 71.5615 11.0956 72 11.6388 72H17.0323C17.5756 72 18.0141 71.5615 18.0141 71.0182V66.744H18.8192C19.3625 66.744 19.801 66.3055 19.801 65.7622V61.1935H28.2054V65.7622C28.2054 66.3055 28.6439 66.744 29.1872 66.744H29.9923V71.0182C29.9923 71.5615 30.4308 72 30.9741 72H30.9676ZM16.0505 70.0364H12.6206V66.744H16.0505V70.0364ZM17.8374 64.7804H10.8403V61.1935H17.8374V64.7804ZM18.8192 59.2298H9.12537C5.27664 59.2298 2.14792 56.1011 2.14792 52.2524V44.7578H45.8519V52.2524C45.8519 56.1011 42.7232 59.2298 38.8745 59.2298H18.8126H18.8192ZM2.14137 8.94109C2.14137 5.09236 5.2701 1.96364 9.11882 1.96364H38.8745C42.7232 1.96364 45.8519 5.09236 45.8519 8.94109V42.7942H2.14137V8.94109ZM37.1595 61.1935V64.7804H30.1625V61.1935H37.1595ZM31.9494 66.744H35.3792V70.0364H31.9494V66.744Z" fill="#F8FAFC"/>
<path d="M23.2767 9.51698C22.2687 10.6035 13.3931 20.3039 13.3931 25.8021C13.3931 31.6079 18.1516 36.3272 23.9967 36.3272C29.8418 36.3272 34.6003 31.6079 34.6003 25.8021C34.6003 20.3039 25.7312 10.6035 24.7167 9.51698C24.3436 9.11771 23.6498 9.11771 23.2767 9.51698ZM29.1218 32.6813C29.3116 32.1381 29.4163 31.5555 29.4163 30.9468C29.4163 28.2697 25.5022 23.9235 24.7167 23.0792C24.3436 22.6799 23.6498 22.6799 23.2767 23.0792C22.4913 23.9235 18.5771 28.2697 18.5771 30.9468C18.5771 31.5555 18.6818 32.1381 18.8716 32.6813C16.7443 31.1235 15.3567 28.6232 15.3567 25.8021C15.3567 22.1301 21.0447 14.9628 23.9967 11.6443C26.9422 14.9628 32.6367 22.1235 32.6367 25.8021C32.6367 28.6232 31.2491 31.117 29.1218 32.6813ZM23.9967 34.3635C22.092 34.3635 20.5407 32.8319 20.5407 30.9468C20.5407 29.7293 22.38 27.1112 23.9967 25.2195C25.6134 27.1046 27.4527 29.7228 27.4527 30.9468C27.4527 32.8319 25.9014 34.3635 23.9967 34.3635Z" fill="#F8FAFC"/>
<path d="M13.5369 48.3381C11.5079 48.3381 9.8584 49.9745 9.8584 51.9905C9.8584 54.0065 11.5079 55.6429 13.5369 55.6429C15.566 55.6429 17.2155 54.0065 17.2155 51.9905C17.2155 49.9745 15.566 48.3381 13.5369 48.3381ZM13.5369 53.6858C12.5944 53.6858 11.822 52.9265 11.822 51.997C11.822 51.0676 12.5879 50.3083 13.5369 50.3083C14.486 50.3083 15.2519 51.0676 15.2519 51.997C15.2519 52.9265 14.486 53.6858 13.5369 53.6858Z" fill="#F8FAFC"/>
<path d="M33.658 55.6495C35.6871 55.6495 37.3366 54.0131 37.3366 51.9971C37.3366 49.9811 35.6871 48.3447 33.658 48.3447C31.6289 48.3447 29.9795 49.9811 29.9795 51.9971C29.9795 54.0131 31.6289 55.6495 33.658 55.6495ZM33.658 50.3018C34.6006 50.3018 35.3729 51.0611 35.3729 51.9905C35.3729 52.92 34.6071 53.6793 33.658 53.6793C32.7089 53.6793 31.9431 52.92 31.9431 51.9905C31.9431 51.0611 32.7089 50.3018 33.658 50.3018Z" fill="#F8FAFC"/>
</svg>
