<svg width="410" height="224" viewBox="0 0 410 224" fill="none" xmlns="http://www.w3.org/2000/svg">
<path d="M66.8788 5.01147C83.9005 5.01147 97.8868 8.45358 108.838 15.3451C119.788 22.2365 125.387 32.4467 125.642 45.9827V48.292H85.6143V47.5367C85.6143 43.6662 84.1982 40.4419 81.3661 37.864C78.534 35.2788 74.2278 33.9934 68.4328 33.9934C62.7395 33.9934 58.3824 34.8431 55.3615 36.5423C52.3406 38.2053 50.8301 40.2677 50.8301 42.7222C50.8301 46.186 52.8925 48.764 57.01 50.4633C61.1347 52.1335 67.772 53.8618 76.9292 55.6555C87.6331 57.8558 96.4272 60.1578 103.319 62.5469C110.21 64.907 116.23 68.7921 121.393 74.2022C126.556 79.6195 129.2 86.9612 129.323 96.2491C129.323 111.978 124.008 123.655 113.369 131.266C102.738 138.854 88.5263 142.645 70.7493 142.645C49.9805 142.645 33.8229 139.166 22.2766 132.21C10.7594 125.26 5.00073 112.959 5.00073 95.3051H45.4055C45.4055 102.008 47.1339 106.488 50.5978 108.754C54.0907 110.991 59.5153 112.109 66.8788 112.109C72.2888 112.109 76.7621 111.521 80.2841 110.359C83.8352 109.197 85.6143 106.822 85.6143 103.235C85.6143 99.9889 83.6463 97.5707 79.7177 95.9659C75.7818 94.361 69.3768 92.6472 60.5029 90.8172C49.6828 88.5225 40.7144 86.1116 33.6051 83.599C26.5248 81.0791 20.3377 76.9254 15.0511 71.1377C9.76449 65.3137 7.12119 57.4491 7.12119 47.5367C7.12119 32.9695 12.7564 22.2365 24.0195 15.3451C35.3189 8.45358 49.6029 5.01147 66.8788 5.01147ZM232.55 7.32074C239.253 7.32074 245.404 8.70774 251.002 11.4745C256.601 14.2485 261.038 18.1481 264.313 23.1806C267.618 28.2203 269.266 33.8191 269.266 39.9844C269.266 56.3453 261.859 66.6717 247.038 70.9489V71.7041C263.936 75.5747 272.381 86.649 272.381 104.934C272.381 111.92 270.667 118.085 267.24 123.437C263.841 128.782 259.165 132.936 253.217 135.891C247.306 138.854 240.807 140.328 233.727 140.328H143.999V7.32074H232.55ZM186.713 59.1484H216.124C218.956 59.1484 221.294 58.1535 223.153 56.1711C225.041 54.1595 225.985 51.6615 225.985 48.6696V46.7815C225.985 43.9203 225.012 41.4949 223.059 39.5124C221.142 37.5009 218.825 36.4915 216.124 36.4915H186.713V59.1484ZM186.713 109.415H219.188C222.05 109.415 224.41 108.427 226.269 106.445C228.128 104.426 229.057 101.928 229.057 98.936V97.0043C229.057 94.0415 228.128 91.5725 226.269 89.59C224.41 87.5785 222.05 86.5691 219.188 86.5691H186.713V109.415ZM362.457 7.32074C370.699 7.32074 378.048 9.22333 384.497 13.0358C390.945 16.841 395.97 22.0622 399.558 28.7068C403.174 35.3441 404.982 42.7875 404.982 51.0297V53.535C404.982 61.7772 403.174 69.2496 399.558 75.9523C395.97 82.6549 390.945 87.9052 384.497 91.7177C378.048 95.5229 370.699 97.4255 362.457 97.4255H330.549V140.328H287.834V7.32074H362.457ZM330.549 66.2723H348.151C352.654 66.2723 356.038 65.1249 358.303 62.8302C360.569 60.4991 361.702 57.3402 361.702 53.3462V51.7849C361.702 47.6602 360.569 44.4868 358.303 42.2501C356.038 39.9844 352.654 38.8516 348.151 38.8516H330.549V66.2723Z" stroke="#FFE08A" stroke-width="8.66669"/>
<path d="M66.8708 5C83.8925 5 97.8715 8.44937 108.815 15.3408C119.773 22.2396 125.387 32.4497 125.663 45.9858V48.3095H85.6353V47.5253C85.6353 43.6547 84.212 40.4305 81.3654 37.8525C78.5333 35.2818 74.2197 33.9892 68.4103 33.9892C62.7533 33.9892 58.4035 34.8316 55.368 36.5163C52.3471 38.1866 50.8367 40.2489 50.8367 42.7034C50.8367 46.1746 52.899 48.7453 57.0237 50.43C61.1485 52.1002 67.7785 53.8431 76.9211 55.6585C87.6251 57.8516 96.4264 60.1318 103.325 62.5137C110.217 64.8956 116.237 68.8024 121.393 74.2198C126.541 79.6226 129.185 86.9643 129.323 96.2376C129.323 111.967 124.007 123.629 113.376 131.24C102.744 138.85 88.5256 142.655 70.7341 142.655C49.9943 142.655 33.8512 139.184 22.3122 132.227C10.7659 125.256 5 112.94 5 95.2791H45.4048C45.4048 101.982 47.1477 106.462 50.6333 108.728C54.119 110.979 59.5291 112.097 66.8708 112.097C72.2881 112.097 76.7759 111.517 80.3197 110.355C83.8635 109.193 85.6353 106.811 85.6353 103.209C85.6353 99.9992 83.6674 97.5883 79.7387 95.9762C75.8028 94.3495 69.3834 92.6358 60.4804 90.8348C49.653 88.511 40.6991 86.1001 33.6116 83.602C26.5241 81.0894 20.337 76.9357 15.0504 71.1407C9.76376 65.3313 7.12045 57.4595 7.12045 47.5253C7.12045 32.9653 12.7556 22.2396 24.026 15.3408C35.3109 8.44937 49.5949 5 66.8708 5Z" fill="#009A92"/>
<path d="M232.556 7.32422C239.251 7.32422 245.402 8.71123 251.001 11.478C256.614 14.252 261.065 18.1516 264.362 23.1841C267.652 28.202 269.3 33.8081 269.3 40.0024C269.3 56.3706 261.879 66.6679 247.05 70.9088V71.6931C263.934 75.5709 272.379 86.6524 272.379 104.952C272.379 111.909 270.666 118.067 267.238 123.426C263.825 128.771 259.163 132.925 253.237 135.888C247.312 138.85 240.805 140.332 233.717 140.332H144.019V7.32422H232.556ZM186.748 59.1156H216.115C218.961 59.1156 221.314 58.1207 223.173 56.1237C225.047 54.134 225.991 51.6504 225.991 48.6876V46.7414C225.991 43.9166 225.018 41.5056 223.086 39.5086C221.147 37.5189 218.823 36.5168 216.115 36.5168H186.748V59.1156ZM186.748 109.396H219.223C222.048 109.396 224.393 108.402 226.252 106.405C228.126 104.415 229.07 101.931 229.07 98.9685V97.0223C229.07 94.0595 228.126 91.5832 226.252 89.5862C224.393 87.5965 222.048 86.5943 219.223 86.5943H186.748V109.396Z" fill="#009A92"/>
<path d="M362.475 7.32422C370.724 7.32422 378.059 9.22682 384.493 13.0175C390.941 16.8154 395.966 22.0367 399.568 28.674C403.185 35.3186 405 42.7619 405 51.0114V53.5094C405 61.7589 403.185 69.2458 399.568 75.963C395.966 82.6657 390.941 87.916 384.493 91.7067C378.059 95.5046 370.724 97.3999 362.475 97.3999H330.581V140.332H287.852V7.32422H362.475ZM330.581 66.2903H348.154C352.664 66.2903 356.041 65.1284 358.292 62.8046C360.558 60.4808 361.69 57.3292 361.69 53.3352V51.7957C361.69 47.6709 360.558 44.4903 358.292 42.2391C356.041 39.9734 352.664 38.8406 348.154 38.8406H330.581V66.2903Z" fill="#009A92"/>
<path d="M15.0217 179.719C19.8145 179.719 22.7482 177.366 22.7482 173.59C22.7482 170.337 20.4825 168.71 17.4616 167.984L13.5693 167.025C12.0588 166.648 11.3036 165.893 11.3036 164.847C11.3036 163.54 12.4364 162.494 14.5278 162.494C16.6483 162.494 18.2459 163.598 18.4783 165.573H22.4287C22.1673 161.739 19.2045 159.183 14.4988 159.183C9.50266 159.183 7.23697 162.174 7.23697 165.283C7.23697 168.013 8.97981 169.93 12.0007 170.685L15.6026 171.586C17.4616 172.051 18.5654 172.573 18.5654 173.968C18.5654 175.507 17.2002 176.408 14.9926 176.408C12.4074 176.408 10.8388 175.188 10.7227 173.038H6.77222C6.85936 177.25 10.0836 179.719 15.0217 179.719Z" fill="#FFE08A"/>
<path d="M32.4057 171.934C32.1733 172.776 31.8829 173.764 31.5924 174.781C31.3019 173.764 31.0114 172.747 30.75 171.905L28.4843 164.963H24.2434L29.7334 179.777L29.6172 180.183C29.2976 181.026 28.7457 181.374 27.6129 181.374H25.7539V184.657H28.9781C30.9824 184.657 32.1733 184.047 32.9866 181.607L38.6218 164.963H34.5262L32.4057 171.934Z" fill="#FFE08A"/>
<path d="M49.8009 166.386C48.8423 165.225 47.5062 164.615 45.7052 164.615C42.51 164.615 39.9248 167.345 39.9248 171.964C39.9248 176.524 42.4519 179.545 45.9957 179.545C47.7385 179.545 49.1328 178.819 50.0914 177.337L50.2366 179.08H53.6351V159.618H49.8009V166.386ZM46.809 176.146C44.95 176.146 43.6429 174.578 43.6429 171.964C43.6429 169.407 44.95 167.81 46.809 167.81C48.668 167.81 49.9752 169.436 49.9752 171.964C49.9752 174.52 48.668 176.146 46.809 176.146Z" fill="#FFE08A"/>
<path d="M64.8362 164.614C63.0352 164.614 61.6991 165.369 60.7695 166.88L60.7115 164.963H56.9353V179.08H60.7986V171.527C60.7986 169.436 61.9314 168.1 63.5581 168.1C64.9233 168.1 65.6204 169.029 65.6204 170.511V179.08H69.4547V169.61C69.4547 166.56 67.77 164.614 64.8362 164.614Z" fill="#FFE08A"/>
<path d="M86.1726 172.515C86.1726 167.577 83.1227 164.614 78.9399 164.614C74.6118 164.614 71.9976 167.838 71.9976 171.963C71.9976 176.291 74.6699 179.544 79.3465 179.544C82.5127 179.544 84.8655 178.063 85.8241 175.013L82.0189 174.722C81.5541 175.972 80.6246 176.552 79.2594 176.552C77.3713 176.552 76.1223 175.303 75.977 173.183H86.1726V172.515ZM79.0851 167.432C80.8279 167.432 81.9898 168.593 82.1932 170.54H75.948C76.1223 168.623 77.3423 167.432 79.0851 167.432Z" fill="#FFE08A"/>
<path d="M95.6494 171.934C95.417 172.776 95.1265 173.764 94.836 174.781C94.5456 173.764 94.2551 172.747 93.9937 171.905L91.728 164.963H87.4871L92.977 179.777L92.8608 180.183C92.5413 181.026 91.9894 181.374 90.8565 181.374H88.9975V184.657H92.2218C94.226 184.657 95.417 184.047 96.2303 181.607L101.865 164.963H97.7698L95.6494 171.934Z" fill="#FFE08A"/>
<path d="M122.632 168.507C124.723 167.897 125.798 166.386 125.798 164.382C125.798 161.39 123.503 159.618 119.989 159.618H110.926V179.08H120.047C124.258 179.08 126.408 176.466 126.408 173.358C126.408 171.179 125.362 169.204 122.632 168.507ZM119.262 162.901C121.063 162.901 121.848 163.743 121.848 164.963C121.848 166.183 121.063 167.142 119.117 167.142H114.963V162.901H119.262ZM114.963 175.653V170.424H119.524C121.383 170.424 122.429 171.354 122.429 172.98C122.429 174.549 121.47 175.653 119.32 175.653H114.963Z" fill="#FFE08A"/>
<path d="M141.793 179.079C141.386 178.382 141.27 177.452 141.27 176.116V169.9C141.27 166.414 139.208 164.643 135.17 164.643C131.365 164.643 129.419 166.095 129.158 169.174L132.672 169.232C132.876 167.925 133.602 167.373 135.199 167.373C136.71 167.373 137.581 167.867 137.581 168.913V169.958L132.643 170.946C129.797 171.498 128.373 172.95 128.373 175.187C128.373 177.772 130.261 179.486 133.253 179.486C135.112 179.486 136.652 178.818 137.61 177.656C137.668 178.15 137.785 178.585 137.901 179.079H141.793ZM134.357 176.639C132.934 176.639 132.12 175.971 132.12 174.954C132.12 174.025 132.788 173.415 133.95 173.182L137.581 172.398V173.444C137.581 175.535 136.187 176.639 134.357 176.639Z" fill="#FFE08A"/>
<path d="M150.56 179.544C154.133 179.544 156.544 177.569 157.096 174.229H153.349C152.884 175.739 151.983 176.523 150.618 176.523C148.672 176.523 147.51 174.955 147.51 172.079C147.51 169.203 148.672 167.635 150.618 167.635C152.012 167.635 152.913 168.361 153.349 169.901H157.096C156.544 166.56 154.191 164.614 150.56 164.614C146.406 164.614 143.792 167.548 143.792 172.079C143.792 176.611 146.406 179.544 150.56 179.544Z" fill="#FFE08A"/>
<path d="M172.996 164.963H168.174L165.037 168.478L163.265 170.656L163.381 167.403V159.618H159.518V179.08H163.381V174.403L164.862 172.864L165.85 174.665L168.551 179.08H173.112L167.506 170.511L172.996 164.963Z" fill="#FFE08A"/>
<path d="M182.463 162.697V159.618H180.429C177.495 159.618 175.927 161.216 175.927 164.121V165.05L173.952 164.963V167.81L175.927 167.723V179.08H179.79V167.723L182.463 167.81V164.963L179.79 165.05V164.324C179.79 163.22 180.284 162.697 181.388 162.697H182.463Z" fill="#FFE08A"/>
<path d="M188.241 179.08V159.618H184.378V179.08H188.241Z" fill="#FFE08A"/>
<path d="M198.013 179.544C202.225 179.544 205.217 176.349 205.217 172.079C205.217 167.809 202.225 164.614 198.013 164.614C193.772 164.614 190.781 167.809 190.781 172.079C190.781 176.349 193.772 179.544 198.013 179.544ZM198.013 176.523C195.835 176.523 194.499 174.781 194.499 172.079C194.499 169.378 195.835 167.635 198.013 167.635C200.163 167.635 201.499 169.378 201.499 172.079C201.499 174.781 200.163 176.523 198.013 176.523Z" fill="#FFE08A"/>
<path d="M221.33 171.237L220.691 174.781L220.023 171.179L218.425 164.963H215.026L213.429 171.237L212.79 174.781L212.122 171.237L210.553 164.963H206.516L210.698 179.08H214.358L216.392 171.237L216.74 169.378L217.06 171.237L219.093 179.08H222.753L226.936 164.963H222.898L221.33 171.237Z" fill="#FFE08A"/>
<path d="M250.203 174.664C251.655 172.544 252.294 170.627 252.555 168.826H249.244C249.07 169.987 248.634 171.062 248.082 172.05L245.468 168.826C247.472 167.606 248.896 165.834 248.896 163.713C248.896 161.157 246.717 159.153 243.609 159.153C240.617 159.153 238.409 160.983 238.409 163.568C238.409 164.73 238.845 165.863 240.385 167.809L240.501 167.983C237.218 169.465 235.853 171.44 235.853 174.054C235.853 177.307 238.438 179.486 242.127 179.486C244.422 179.486 246.136 178.673 247.792 177.278L249.186 179.079H253.805L250.203 174.664ZM243.725 162.319C244.567 162.319 245.352 162.842 245.352 163.946C245.352 164.875 244.771 165.514 243.435 166.328L242.854 165.63C242.302 164.933 242.098 164.41 242.098 163.888C242.098 162.9 242.796 162.319 243.725 162.319ZM242.563 176.146C240.849 176.146 239.862 175.158 239.862 173.764C239.862 172.95 240.21 171.73 242.534 170.568L245.846 174.809C244.713 175.768 243.667 176.146 242.563 176.146Z" fill="#FF6633"/>
<path d="M270.652 159.618H262.926V179.08H266.963V172.312H270.304C274.98 172.312 277.449 169.843 277.449 165.864C277.449 161.971 274.864 159.618 270.652 159.618ZM266.963 168.885V163.046H270.362C272.221 163.046 273.528 164.034 273.528 165.922C273.528 167.781 272.337 168.885 269.955 168.885H266.963Z" fill="#FFE08A"/>
<path d="M283.363 179.08V159.618H279.5V179.08H283.363Z" fill="#FFE08A"/>
<path d="M295.342 172.515C295.342 174.635 294.209 175.972 292.583 175.972C291.217 175.972 290.52 175.042 290.52 173.561V164.963H286.657V174.432C286.657 177.482 288.371 179.428 291.276 179.428C293.105 179.428 294.442 178.702 295.371 177.163L295.429 179.08H299.176V164.963H295.342V172.515Z" fill="#FFE08A"/>
<path d="M318.334 164.614C316.417 164.614 315.081 165.427 314.181 167.17C313.571 165.573 312.176 164.614 310.143 164.614C308.458 164.614 307.18 165.34 306.309 166.793L306.251 164.963H302.475V179.08H306.338V171.527C306.338 169.436 307.355 168.1 308.865 168.1C310.201 168.1 310.753 169.145 310.753 170.423V179.08H314.587V171.527C314.587 169.436 315.604 168.1 317.114 168.1C318.451 168.1 319.003 169.145 319.003 170.423V179.08H322.866V169.639C322.866 166.705 321.268 164.614 318.334 164.614Z" fill="#FFE08A"/>
<path d="M334.092 164.615C332.291 164.615 330.955 165.225 329.996 166.386V159.618H326.133V179.08H329.561L329.706 177.337C330.664 178.819 332.059 179.545 333.802 179.545C337.345 179.545 339.872 176.524 339.872 171.964C339.872 167.345 337.287 164.615 334.092 164.615ZM332.988 176.146C331.129 176.146 329.822 174.52 329.822 171.964C329.822 169.436 331.129 167.81 332.988 167.81C334.847 167.81 336.154 169.407 336.154 171.964C336.154 174.578 334.847 176.146 332.988 176.146Z" fill="#FFE08A"/>
<path d="M346.28 163.104V159.618H342.417V163.104H346.28ZM346.251 179.08V164.963H342.388V179.08H346.251Z" fill="#FFE08A"/>
<path d="M357.447 164.614C355.646 164.614 354.309 165.369 353.38 166.88L353.322 164.963H349.546V179.08H353.409V171.527C353.409 169.436 354.542 168.1 356.168 168.1C357.534 168.1 358.231 169.029 358.231 170.511V179.08H362.065V169.61C362.065 166.56 360.38 164.614 357.447 164.614Z" fill="#FFE08A"/>
<path d="M374.774 166.734C373.845 165.34 372.451 164.614 370.65 164.614C367.193 164.614 364.608 167.257 364.608 171.76C364.608 176.117 367.135 179.08 370.65 179.08C372.247 179.08 373.525 178.499 374.484 177.366V179.312C374.484 181.084 373.758 182.1 371.521 182.1C369.865 182.1 368.907 181.549 368.675 180.241H365.131C365.392 183.175 367.571 184.976 371.608 184.976C375.849 184.976 378.318 182.972 378.318 179.254V164.963H374.92L374.774 166.734ZM371.492 175.797C369.633 175.797 368.326 174.258 368.326 171.76C368.326 169.262 369.633 167.722 371.492 167.722C373.351 167.722 374.658 169.291 374.658 171.76C374.658 174.229 373.351 175.797 371.492 175.797Z" fill="#FFE08A"/>
<path d="M17.5489 223.22C24.9559 223.22 29.0516 217.672 29.0516 208.319C29.0516 199.169 24.9559 193.766 17.5489 193.766C10.1418 193.766 6.01709 199.169 6.01709 208.319C6.01709 217.672 10.1418 223.22 17.5489 223.22ZM17.5489 218.253C13.8308 218.253 11.9718 215.087 11.9718 208.435C11.9718 201.841 13.8308 198.704 17.5489 198.704C21.2669 198.704 23.126 201.841 23.126 208.435C23.126 215.087 21.2669 218.253 17.5489 218.253Z" fill="#FF6633"/>
<path d="M59.8747 194.406H53.6876L41.1101 210.585V216.656H54.1233V222.582H59.8747V216.656H64.0865V211.921H59.8747V194.406ZM46.0482 211.921L54.0071 201.668H54.1233V211.921H46.0482Z" fill="#FF6633"/>
<path d="M88.8096 222.582V194.406H83.6101L83.5811 194.754C83.4068 196.149 82.942 197.281 82.0997 198.066C81.1702 198.995 79.7759 199.46 77.9169 199.46H75.8545V203.381H82.942V222.582H88.8096Z" fill="#FF6633"/>
<path d="M114.89 223.249C122.007 223.249 125.812 219.415 125.812 214.331C125.812 210.613 123.75 208.057 119.944 207.215V207.128C122.646 206.198 124.243 203.961 124.243 201.173C124.243 196.816 120.583 193.766 114.309 193.766C107.919 193.766 104.404 196.845 104.172 203.09H109.749C109.894 199.575 111.695 198.501 114.048 198.501C116.749 198.501 118.347 199.895 118.347 202.102C118.347 204.397 116.633 205.704 114.106 205.704H112.276V210.061H114.338C117.708 210.061 119.596 211.659 119.596 214.215C119.596 216.597 117.94 218.427 114.774 218.427C111.375 218.427 109.429 216.365 109.313 212.995H103.533C103.649 218.776 107.135 223.249 114.89 223.249Z" fill="#FF6633"/>
<path d="M168.324 223.221C174.976 223.221 179.507 219.125 179.507 213.083C179.507 207.216 175.353 203.527 169.951 203.527C167.772 203.527 165.797 204.137 164.344 205.095L164.257 205.037L165.216 199.547H177.59V194.406H160.859L158.244 209.394L163.676 210.178C164.954 209.075 166.32 208.494 168.179 208.494C171.868 208.494 173.64 210.701 173.64 213.316C173.64 216.075 171.606 218.225 168.324 218.225C165.71 218.225 163.851 216.946 163.241 214.623L157.46 215.087C158.244 220.113 162.427 223.221 168.324 223.221Z" fill="#FF6633"/>
<path d="M210.824 194.406H204.637L192.06 210.585V216.656H205.073V222.582H210.824V216.656H215.036V211.921H210.824V194.406ZM196.998 211.921L204.957 201.668H205.073V211.921H196.998Z" fill="#FF6633"/>
<path d="M240.137 203.351C237.029 203.351 234.473 204.601 232.788 206.866C232.991 200.853 235.17 198.442 238.772 198.442C241.066 198.442 242.925 199.692 243.361 201.551H248.967C248.328 196.874 244.581 193.766 238.772 193.766C231.364 193.766 227.124 198.936 227.124 208.87C227.124 213.518 228.256 217.149 230.377 219.618C232.439 222 235.547 223.249 239.12 223.249C245.481 223.249 250.013 219.124 250.013 213.169C250.013 207.418 246.091 203.351 240.137 203.351ZM239.091 218.34C237.493 218.34 236.157 217.788 235.199 216.8C234.298 215.9 233.775 214.593 233.775 213.082C233.775 210.061 235.896 207.97 238.946 207.97C241.938 207.97 244.145 210.061 244.145 213.169C244.145 215.813 242.431 218.34 239.091 218.34Z" fill="#FF6633"/>
<path d="M289.562 217.672C289.823 216.655 290.666 216.016 292.932 214.506L296.766 211.92C300.426 209.48 302.546 206.43 302.546 202.625C302.546 197.31 298.451 193.766 292.322 193.766C286.076 193.766 282.3 197.484 282.3 203.787V204.281H287.964V203.497C287.964 200.185 289.62 198.617 292.205 198.617C294.645 198.617 296.388 200.098 296.388 202.916C296.388 205.123 295.284 206.518 293.309 207.97L287.935 211.92C284.043 214.767 281.981 217.672 281.981 222.581H302.808V217.672H289.562Z" fill="#FF6633"/>
<path d="M327.821 222.582C328.257 213.316 330.755 207.128 338.685 199.257V194.406H316.202V199.663H332.004C324.655 206.954 321.257 214.942 321.257 222.582H327.821Z" fill="#FF6633"/>
<path d="M362.856 222.582C363.292 213.316 365.79 207.128 373.72 199.257V194.406H351.237V199.663H367.039C359.69 206.954 356.292 214.942 356.292 222.582H362.856Z" fill="#FF6633"/>
</svg>
