<svg width="297" height="162" viewBox="0 0 297 162" fill="none" xmlns="http://www.w3.org/2000/svg">
<path d="M49.3812 5.00818C61.5895 5.00818 71.6208 7.47693 79.4749 12.4196C87.3291 17.3623 91.3447 24.6853 91.527 34.3936V36.0498H62.8187V35.5082C62.8187 32.7321 61.8031 30.4196 59.7718 28.5707C57.7406 26.7165 54.652 25.7946 50.4958 25.7946C46.4124 25.7946 43.2874 26.404 41.1208 27.6228C38.9541 28.8155 37.8708 30.2946 37.8708 32.0551C37.8708 34.5394 39.3499 36.3884 42.3031 37.6071C45.2614 38.8051 50.0218 40.0446 56.5895 41.3311C64.2666 42.9092 70.5739 44.5603 75.5166 46.2738C80.4593 47.9665 84.777 50.753 88.4802 54.6332C92.1833 58.5186 94.0791 63.7842 94.1677 70.4457C94.1677 81.7269 90.3552 90.1019 82.7249 95.5603C75.0999 101.003 64.9072 103.722 52.1572 103.722C37.2614 103.722 25.6729 101.227 17.3916 96.2374C9.13119 91.253 5.00098 82.4301 5.00098 69.7686H33.9801C33.9801 74.5759 35.2197 77.7894 37.7041 79.4144C40.2093 81.0186 44.0999 81.8207 49.3812 81.8207C53.2614 81.8207 56.4697 81.3988 58.9958 80.5655C61.5427 79.7321 62.8187 78.029 62.8187 75.4561C62.8187 73.128 61.4072 71.3936 58.5895 70.2426C55.7666 69.0915 51.1729 67.8623 44.8083 66.5498C37.0479 64.904 30.6156 63.1748 25.5166 61.3728C20.4385 59.5655 16.001 56.5863 12.2093 52.4353C8.41764 48.2582 6.52181 42.6176 6.52181 35.5082C6.52181 25.0603 10.5635 17.3623 18.6416 12.4196C26.7458 7.47693 36.9906 5.00818 49.3812 5.00818ZM168.204 6.66443C173.011 6.66443 177.423 7.65922 181.439 9.64359C185.454 11.6332 188.636 14.4301 190.985 18.0394C193.355 21.654 194.537 25.6696 194.537 30.0915C194.537 41.8259 189.225 49.2321 178.595 52.2998V52.8415C190.715 55.6176 196.772 63.5603 196.772 76.6749C196.772 81.6853 195.543 86.1071 193.084 89.9457C190.647 93.779 187.293 96.7582 183.027 98.878C178.787 101.003 174.126 102.06 169.048 102.06H104.694V6.66443H168.204ZM135.329 43.8363H156.423C158.454 43.8363 160.131 43.1228 161.465 41.7009C162.819 40.2582 163.496 38.4665 163.496 36.3207V34.9665C163.496 32.9144 162.798 31.1748 161.397 29.753C160.022 28.3103 158.36 27.5863 156.423 27.5863H135.329V43.8363ZM135.329 79.8884H158.621C160.673 79.8884 162.366 79.1801 163.699 77.7582C165.032 76.3103 165.699 74.5186 165.699 72.3728V70.9874C165.699 68.8624 165.032 67.0915 163.699 65.6696C162.366 64.2269 160.673 63.503 158.621 63.503H135.329V79.8884ZM261.376 6.66443C267.287 6.66443 272.558 8.02901 277.183 10.7634C281.808 13.4926 285.412 17.2373 287.985 22.003C290.579 26.7634 291.876 32.1019 291.876 38.0134V39.8103C291.876 45.7217 290.579 51.0811 287.985 55.8884C285.412 60.6957 281.808 64.4613 277.183 67.1957C272.558 69.9248 267.287 71.2894 261.376 71.2894H238.491V102.06H207.855V6.66443H261.376ZM238.491 48.9457H251.116C254.345 48.9457 256.772 48.1228 258.397 46.4769C260.022 44.8051 260.834 42.5394 260.834 39.6748V38.5551C260.834 35.5967 260.022 33.3207 258.397 31.7165C256.772 30.0915 254.345 29.279 251.116 29.279H238.491V48.9457Z" stroke="white" stroke-width="8.66669"/>
<path d="M49.375 5C61.5833 5 71.6094 7.47396 79.4583 12.4167C87.3177 17.3646 91.3438 24.6875 91.5417 34.3958V36.0625H62.8333V35.5C62.8333 32.724 61.8125 30.4115 59.7708 28.5625C57.7396 26.7188 54.6458 25.7917 50.4792 25.7917C46.4219 25.7917 43.3021 26.3958 41.125 27.6042C38.9583 28.8021 37.875 30.2813 37.875 32.0417C37.875 34.5313 39.3542 36.375 42.3125 37.5833C45.2708 38.7813 50.026 40.0313 56.5833 41.3333C64.2604 42.9063 70.5729 44.5417 75.5208 46.25C80.4635 47.9583 84.7813 50.7604 88.4792 54.6458C92.1719 58.5208 94.0677 63.7865 94.1667 70.4375C94.1667 81.7188 90.3542 90.0833 82.7292 95.5417C75.1042 101 64.9063 103.729 52.1458 103.729C37.2708 103.729 25.6927 101.24 17.4167 96.25C9.13542 91.25 5 82.4167 5 69.75H33.9792C33.9792 74.5573 35.2292 77.7708 37.7292 79.3958C40.2292 81.0104 44.1094 81.8125 49.375 81.8125C53.2604 81.8125 56.4792 81.3958 59.0208 80.5625C61.5625 79.7292 62.8333 78.0208 62.8333 75.4375C62.8333 73.1354 61.4219 71.4063 58.6042 70.25C55.7813 69.0833 51.1771 67.8542 44.7917 66.5625C37.026 64.8958 30.6042 63.1667 25.5208 61.375C20.4375 59.5729 16 56.5938 12.2083 52.4375C8.41667 48.2708 6.52083 42.625 6.52083 35.5C6.52083 25.0573 10.5625 17.3646 18.6458 12.4167C26.7396 7.47396 36.9844 5 49.375 5Z" fill="#009A92"/>
<path d="M168.208 6.66675C173.01 6.66675 177.422 7.66154 181.437 9.64591C185.463 11.6355 188.656 14.4324 191.021 18.0417C193.38 21.6407 194.562 25.6615 194.562 30.1042C194.562 41.8438 189.239 49.2292 178.604 52.2709V52.8334C190.713 55.6147 196.771 63.5626 196.771 76.6876C196.771 81.6772 195.541 86.0938 193.083 89.9376C190.635 93.7709 187.291 96.7501 183.041 98.8751C178.791 101 174.125 102.063 169.041 102.063H104.708V6.66675H168.208ZM135.354 43.8126H156.416C158.458 43.8126 160.146 43.099 161.479 41.6667C162.823 40.2397 163.5 38.4584 163.5 36.3334V34.9376C163.5 32.9115 162.802 31.1824 161.416 29.7501C160.026 28.323 158.359 27.6042 156.416 27.6042H135.354V43.8126ZM135.354 79.8751H158.646C160.672 79.8751 162.354 79.1615 163.687 77.7293C165.031 76.3022 165.708 74.5209 165.708 72.3959V71.0001C165.708 68.8751 165.031 67.099 163.687 65.6667C162.354 64.2397 160.672 63.5209 158.646 63.5209H135.354V79.8751Z" fill="#009A92"/>
<path d="M261.389 6.66675C267.306 6.66675 272.566 8.03133 277.181 10.7501C281.806 13.474 285.41 17.2188 287.993 21.9792C290.587 26.7449 291.889 32.0834 291.889 38.0001V39.7917C291.889 45.7084 290.587 51.0782 287.993 55.8959C285.41 60.7032 281.806 64.4688 277.181 67.1876C272.566 69.9115 267.306 71.2709 261.389 71.2709H238.514V102.063H207.868V6.66675H261.389ZM238.514 48.9584H251.118C254.353 48.9584 256.774 48.1251 258.389 46.4584C260.014 44.7917 260.826 42.5313 260.826 39.6667V38.5626C260.826 35.6042 260.014 33.323 258.389 31.7084C256.774 30.0834 254.353 29.2709 251.118 29.2709H238.514V48.9584Z" fill="#009A92"/>
<path d="M12.1901 130.312C15.6276 130.312 17.7318 128.624 17.7318 125.916C17.7318 123.583 16.1068 122.416 13.9401 121.895L11.1484 121.208C10.0651 120.937 9.52344 120.395 9.52344 119.645C9.52344 118.708 10.3359 117.958 11.8359 117.958C13.3568 117.958 14.5026 118.749 14.6693 120.166H17.5026C17.3151 117.416 15.1901 115.583 11.8151 115.583C8.23177 115.583 6.60677 117.729 6.60677 119.958C6.60677 121.916 7.85677 123.291 10.0234 123.833L12.6068 124.479C13.9401 124.812 14.7318 125.187 14.7318 126.187C14.7318 127.291 13.7526 127.937 12.1693 127.937C10.3151 127.937 9.1901 127.062 9.10677 125.52H6.27344C6.33594 128.541 8.64844 130.312 12.1901 130.312Z" fill="#FFF4F0"/>
<path d="M24.6589 124.729C24.4922 125.333 24.2839 126.041 24.0755 126.77C23.8672 126.041 23.6589 125.312 23.4714 124.708L21.8464 119.729H18.8047L22.7422 130.354L22.6589 130.645C22.4297 131.249 22.0339 131.499 21.2214 131.499H19.888V133.854H22.2005C23.638 133.854 24.4922 133.416 25.0755 131.666L29.1172 119.729H26.1797L24.6589 124.729Z" fill="#FFF4F0"/>
<path d="M37.1351 120.749C36.4476 119.916 35.4893 119.479 34.1976 119.479C31.9059 119.479 30.0518 121.437 30.0518 124.749C30.0518 128.02 31.8643 130.187 34.4059 130.187C35.6559 130.187 36.6559 129.666 37.3434 128.604L37.4476 129.854H39.8851V115.895H37.1351V120.749ZM34.9893 127.749C33.6559 127.749 32.7184 126.624 32.7184 124.749C32.7184 122.916 33.6559 121.77 34.9893 121.77C36.3226 121.77 37.2601 122.937 37.2601 124.749C37.2601 126.583 36.3226 127.749 34.9893 127.749Z" fill="#FFF4F0"/>
<path d="M47.9186 119.479C46.627 119.479 45.6686 120.02 45.002 121.104L44.9603 119.729H42.252V129.854H45.0228V124.437C45.0228 122.937 45.8353 121.979 47.002 121.979C47.9811 121.979 48.4811 122.645 48.4811 123.708V129.854H51.2311V123.062C51.2311 120.874 50.0228 119.479 47.9186 119.479Z" fill="#FFF4F0"/>
<path d="M63.2214 125.145C63.2214 121.604 61.0339 119.479 58.0339 119.479C54.9297 119.479 53.0547 121.791 53.0547 124.749C53.0547 127.854 54.9714 130.187 58.3255 130.187C60.5964 130.187 62.2839 129.124 62.9714 126.937L60.2422 126.729C59.9089 127.624 59.2422 128.041 58.263 128.041C56.9089 128.041 56.013 127.145 55.9089 125.624H63.2214V125.145ZM58.138 121.499C59.388 121.499 60.2214 122.333 60.3672 123.729H55.888C56.013 122.354 56.888 121.499 58.138 121.499Z" fill="#FFF4F0"/>
<path d="M70.0182 124.729C69.8516 125.333 69.6432 126.041 69.4349 126.77C69.2266 126.041 69.0182 125.312 68.8307 124.708L67.2057 119.729H64.1641L68.1016 130.354L68.0182 130.645C67.7891 131.249 67.3932 131.499 66.5807 131.499H65.2474V133.854H67.5599C68.9974 133.854 69.8516 133.416 70.4349 131.666L74.4766 119.729H71.5391L70.0182 124.729Z" fill="#FFF4F0"/>
<path d="M89.3714 122.27C90.8714 121.833 91.6423 120.749 91.6423 119.312C91.6423 117.166 89.9964 115.895 87.4756 115.895H80.9756V129.854H87.5173C90.5381 129.854 92.0798 127.979 92.0798 125.749C92.0798 124.187 91.3298 122.77 89.3714 122.27ZM86.9548 118.249C88.2464 118.249 88.8089 118.854 88.8089 119.729C88.8089 120.604 88.2464 121.291 86.8506 121.291H83.8714V118.249H86.9548ZM83.8714 127.395V123.645H87.1423C88.4756 123.645 89.2256 124.312 89.2256 125.479C89.2256 126.604 88.5381 127.395 86.9964 127.395H83.8714Z" fill="#FFF4F0"/>
<path d="M103.114 129.854C102.823 129.354 102.739 128.687 102.739 127.729V123.27C102.739 120.77 101.26 119.499 98.3643 119.499C95.6351 119.499 94.2393 120.541 94.0518 122.749L96.5726 122.791C96.7184 121.854 97.2393 121.458 98.3851 121.458C99.4684 121.458 100.093 121.812 100.093 122.562V123.312L96.5518 124.02C94.5101 124.416 93.4893 125.458 93.4893 127.062C93.4893 128.916 94.8434 130.145 96.9893 130.145C98.3226 130.145 99.4268 129.666 100.114 128.833C100.156 129.187 100.239 129.499 100.323 129.854H103.114ZM97.7809 128.104C96.7601 128.104 96.1768 127.624 96.1768 126.895C96.1768 126.229 96.6559 125.791 97.4893 125.624L100.093 125.062V125.812C100.093 127.312 99.0934 128.104 97.7809 128.104Z" fill="#FFF4F0"/>
<path d="M109.401 130.187C111.964 130.187 113.693 128.77 114.089 126.374H111.401C111.068 127.458 110.422 128.02 109.443 128.02C108.047 128.02 107.214 126.895 107.214 124.833C107.214 122.77 108.047 121.645 109.443 121.645C110.443 121.645 111.089 122.166 111.401 123.27H114.089C113.693 120.874 112.005 119.479 109.401 119.479C106.422 119.479 104.547 121.583 104.547 124.833C104.547 128.083 106.422 130.187 109.401 130.187Z" fill="#FFF4F0"/>
<path d="M125.493 119.729H122.035L119.785 122.249L118.514 123.812L118.597 121.479V115.895H115.826V129.854H118.597V126.499L119.66 125.395L120.368 126.687L122.305 129.854H125.576L121.555 123.708L125.493 119.729Z" fill="#FFF4F0"/>
<path d="M132.283 118.104V115.895H130.825C128.72 115.895 127.595 117.041 127.595 119.124V119.791L126.179 119.729V121.77L127.595 121.708V129.854H130.366V121.708L132.283 121.77V119.729L130.366 119.791V119.27C130.366 118.479 130.72 118.104 131.512 118.104H132.283Z" fill="#FFF4F0"/>
<path d="M136.427 129.854V115.895H133.656V129.854H136.427Z" fill="#FFF4F0"/>
<path d="M143.436 130.187C146.456 130.187 148.602 127.895 148.602 124.833C148.602 121.77 146.456 119.479 143.436 119.479C140.394 119.479 138.248 121.77 138.248 124.833C138.248 127.895 140.394 130.187 143.436 130.187ZM143.436 128.02C141.873 128.02 140.915 126.77 140.915 124.833C140.915 122.895 141.873 121.645 143.436 121.645C144.977 121.645 145.936 122.895 145.936 124.833C145.936 126.77 144.977 128.02 143.436 128.02Z" fill="#FFF4F0"/>
<path d="M160.159 124.229L159.701 126.77L159.222 124.187L158.076 119.729H155.638L154.493 124.229L154.034 126.77L153.555 124.229L152.43 119.729H149.534L152.534 129.854H155.159L156.618 124.229L156.868 122.895L157.097 124.229L158.555 129.854H161.18L164.18 119.729H161.284L160.159 124.229Z" fill="#FFF4F0"/>
<path d="M180.868 126.687C181.91 125.166 182.368 123.791 182.555 122.499H180.18C180.055 123.333 179.743 124.104 179.347 124.812L177.472 122.499C178.91 121.624 179.93 120.354 179.93 118.833C179.93 116.999 178.368 115.562 176.139 115.562C173.993 115.562 172.41 116.874 172.41 118.729C172.41 119.562 172.722 120.374 173.826 121.77L173.91 121.895C171.555 122.958 170.576 124.374 170.576 126.249C170.576 128.583 172.43 130.145 175.076 130.145C176.722 130.145 177.951 129.562 179.139 128.562L180.139 129.854H183.451L180.868 126.687ZM176.222 117.833C176.826 117.833 177.389 118.208 177.389 118.999C177.389 119.666 176.972 120.124 176.014 120.708L175.597 120.208C175.201 119.708 175.055 119.333 175.055 118.958C175.055 118.249 175.555 117.833 176.222 117.833ZM175.389 127.749C174.16 127.749 173.451 127.041 173.451 126.041C173.451 125.458 173.701 124.583 175.368 123.749L177.743 126.791C176.93 127.479 176.18 127.749 175.389 127.749Z" fill="#FF6633"/>
<path d="M195.53 115.895H189.988V129.854H192.884V124.999H195.28C198.634 124.999 200.405 123.229 200.405 120.374C200.405 117.583 198.551 115.895 195.53 115.895ZM192.884 122.541V118.354H195.322C196.655 118.354 197.592 119.062 197.592 120.416C197.592 121.749 196.738 122.541 195.03 122.541H192.884Z" fill="#FFF4F0"/>
<path d="M204.647 129.854V115.895H201.876V129.854H204.647Z" fill="#FFF4F0"/>
<path d="M213.239 125.145C213.239 126.666 212.426 127.624 211.26 127.624C210.281 127.624 209.781 126.958 209.781 125.895V119.729H207.01V126.52C207.01 128.708 208.239 130.104 210.322 130.104C211.635 130.104 212.593 129.583 213.26 128.479L213.301 129.854H215.989V119.729H213.239V125.145Z" fill="#FFF4F0"/>
<path d="M229.729 119.479C228.354 119.479 227.396 120.062 226.75 121.312C226.313 120.166 225.313 119.479 223.854 119.479C222.646 119.479 221.729 119.999 221.104 121.041L221.063 119.729H218.354V129.854H221.125V124.437C221.125 122.937 221.854 121.979 222.938 121.979C223.896 121.979 224.292 122.729 224.292 123.645V129.854H227.042V124.437C227.042 122.937 227.771 121.979 228.854 121.979C229.813 121.979 230.209 122.729 230.209 123.645V129.854H232.979V123.083C232.979 120.979 231.834 119.479 229.729 119.479Z" fill="#FFF4F0"/>
<path d="M241.031 119.479C239.739 119.479 238.781 119.916 238.093 120.749V115.895H235.322V129.854H237.781L237.885 128.604C238.572 129.666 239.572 130.187 240.822 130.187C243.364 130.187 245.176 128.02 245.176 124.749C245.176 121.437 243.322 119.479 241.031 119.479ZM240.239 127.749C238.906 127.749 237.968 126.583 237.968 124.749C237.968 122.937 238.906 121.77 240.239 121.77C241.572 121.77 242.51 122.916 242.51 124.749C242.51 126.624 241.572 127.749 240.239 127.749Z" fill="#FFF4F0"/>
<path d="M249.772 118.395V115.895H247.001V118.395H249.772ZM249.751 129.854V119.729H246.98V129.854H249.751Z" fill="#FFF4F0"/>
<path d="M257.781 119.479C256.489 119.479 255.531 120.02 254.864 121.104L254.823 119.729H252.114V129.854H254.885V124.437C254.885 122.937 255.698 121.979 256.864 121.979C257.843 121.979 258.343 122.645 258.343 123.708V129.854H261.093V123.062C261.093 120.874 259.885 119.479 257.781 119.479Z" fill="#FFF4F0"/>
<path d="M270.209 120.999C269.542 119.999 268.542 119.479 267.25 119.479C264.771 119.479 262.917 121.374 262.917 124.604C262.917 127.729 264.729 129.854 267.25 129.854C268.396 129.854 269.313 129.437 270 128.624V130.02C270 131.291 269.479 132.02 267.875 132.02C266.688 132.02 266 131.624 265.834 130.687H263.292C263.479 132.791 265.042 134.083 267.938 134.083C270.979 134.083 272.75 132.645 272.75 129.979V119.729H270.313L270.209 120.999ZM267.854 127.499C266.521 127.499 265.584 126.395 265.584 124.604C265.584 122.812 266.521 121.708 267.854 121.708C269.188 121.708 270.125 122.833 270.125 124.604C270.125 126.374 269.188 127.499 267.854 127.499Z" fill="#FFF4F0"/>
<path d="M14.0003 161.512C19.3128 161.512 22.2503 157.533 22.2503 150.824C22.2503 144.262 19.3128 140.387 14.0003 140.387C8.68783 140.387 5.72949 144.262 5.72949 150.824C5.72949 157.533 8.68783 161.512 14.0003 161.512ZM14.0003 157.949C11.3337 157.949 10.0003 155.679 10.0003 150.908C10.0003 146.179 11.3337 143.929 14.0003 143.929C16.667 143.929 18.0003 146.179 18.0003 150.908C18.0003 155.679 16.667 157.949 14.0003 157.949Z" fill="#FF6633"/>
<path d="M44.3577 140.845H39.9202L30.8994 152.449V156.804H40.2327V161.054H44.3577V156.804H47.3786V153.408H44.3577V140.845ZM34.4411 153.408L40.1494 146.054H40.2327V153.408H34.4411Z" fill="#FF6633"/>
<path d="M65.11 161.054V140.845H61.3809L61.36 141.095C61.235 142.095 60.9017 142.908 60.2975 143.47C59.6309 144.137 58.6309 144.47 57.2975 144.47H55.8184V147.283H60.9017V161.054H65.11Z" fill="#FF6633"/>
<path d="M83.8158 161.533C88.9199 161.533 91.6491 158.783 91.6491 155.137C91.6491 152.47 90.1699 150.637 87.4408 150.033V149.97C89.3783 149.304 90.5241 147.699 90.5241 145.699C90.5241 142.574 87.8991 140.387 83.3991 140.387C78.8158 140.387 76.2949 142.595 76.1283 147.074H80.1283C80.2324 144.554 81.5241 143.783 83.2116 143.783C85.1491 143.783 86.2949 144.783 86.2949 146.366C86.2949 148.012 85.0658 148.949 83.2533 148.949H81.9408V152.074H83.4199C85.8366 152.074 87.1908 153.22 87.1908 155.054C87.1908 156.762 86.0033 158.074 83.7324 158.074C81.2949 158.074 79.8991 156.595 79.8158 154.179H75.6699C75.7533 158.324 78.2533 161.533 83.8158 161.533Z" fill="#FF6633"/>
<path d="M122.139 161.512C126.91 161.512 130.16 158.574 130.16 154.241C130.16 150.033 127.181 147.387 123.306 147.387C121.743 147.387 120.327 147.824 119.285 148.512L119.223 148.47L119.91 144.533H128.785V140.845H116.785L114.91 151.595L118.806 152.158C119.723 151.366 120.702 150.949 122.035 150.949C124.681 150.949 125.952 152.533 125.952 154.408C125.952 156.387 124.493 157.929 122.139 157.929C120.264 157.929 118.931 157.012 118.493 155.345L114.348 155.679C114.91 159.283 117.91 161.512 122.139 161.512Z" fill="#FF6633"/>
<path d="M152.621 140.845H148.184L139.163 152.449V156.804H148.496V161.054H152.621V156.804H155.642V153.408H152.621V140.845ZM142.705 153.408L148.413 146.054H148.496V153.408H142.705Z" fill="#FF6633"/>
<path d="M173.645 147.262C171.416 147.262 169.582 148.158 168.374 149.783C168.52 145.47 170.082 143.741 172.666 143.741C174.312 143.741 175.645 144.637 175.957 145.97H179.978C179.52 142.616 176.832 140.387 172.666 140.387C167.353 140.387 164.312 144.095 164.312 151.22C164.312 154.554 165.124 157.158 166.645 158.929C168.124 160.637 170.353 161.533 172.916 161.533C177.478 161.533 180.728 158.574 180.728 154.304C180.728 150.179 177.916 147.262 173.645 147.262ZM172.895 158.012C171.749 158.012 170.791 157.616 170.103 156.908C169.457 156.262 169.082 155.324 169.082 154.241C169.082 152.074 170.603 150.574 172.791 150.574C174.937 150.574 176.52 152.074 176.52 154.304C176.52 156.199 175.291 158.012 172.895 158.012Z" fill="#FF6633"/>
<path d="M209.094 157.533C209.281 156.804 209.885 156.345 211.51 155.262L214.26 153.408C216.885 151.658 218.406 149.47 218.406 146.741C218.406 142.929 215.469 140.387 211.073 140.387C206.594 140.387 203.885 143.054 203.885 147.574V147.929H207.948V147.366C207.948 144.991 209.135 143.866 210.99 143.866C212.74 143.866 213.99 144.929 213.99 146.949C213.99 148.533 213.198 149.533 211.781 150.574L207.927 153.408C205.135 155.449 203.656 157.533 203.656 161.054H218.594V157.533H209.094Z" fill="#FF6633"/>
<path d="M236.535 161.054C236.847 154.408 238.639 149.97 244.326 144.324V140.845H228.201V144.616H239.535C234.264 149.845 231.826 155.574 231.826 161.054H236.535Z" fill="#FF6633"/>
<path d="M261.662 161.054C261.975 154.408 263.767 149.97 269.454 144.324V140.845H253.329V144.616H264.662C259.392 149.845 256.954 155.574 256.954 161.054H261.662Z" fill="#FF6633"/>
</svg>
