<svg width="80" height="64" viewBox="0 0 80 64" fill="none" xmlns="http://www.w3.org/2000/svg">
<path d="M44.5276 10.4269C44.5107 10.0672 44.3499 9.72865 44.0791 9.48744L44.0452 9.45782C42.2849 7.87944 40.0166 7.07541 37.6554 7.18959C35.2941 7.30808 33.1191 8.33638 31.528 10.0841L30.3389 11.3916L22.4722 3.45303C22.2183 3.1949 21.8713 3.05103 21.5116 3.05103L10.0773 3.05526C9.74719 1.31601 8.21961 0 6.3873 0H2.08363C1.33462 0 0.729492 0.605126 0.729492 1.35414V11.7979C0.729492 12.5469 1.33462 13.152 2.08363 13.152H6.3873C8.11387 13.152 9.57374 11.9799 10.0097 10.3887H19.2855L25.5483 16.6601L24.0672 18.2893C22.4676 20.0455 21.6509 22.3179 21.761 24.6919C21.871 27.0659 22.9035 29.2494 24.6597 30.849C24.9178 31.086 25.2437 31.2002 25.5695 31.2002C25.9377 31.2002 26.3058 31.0521 26.5724 30.7559L44.1762 11.4047C44.4174 11.1424 44.5446 10.7908 44.5276 10.4269ZM7.43727 9.39435C7.43727 9.9741 6.96756 10.4438 6.38782 10.4438H3.43829V2.70833H6.38782C6.96756 2.70833 7.43727 3.17804 7.43727 3.75778V9.39435ZM20.8053 8.07402C20.5514 7.82011 20.2044 7.67623 19.8447 7.67623H10.1457V5.76354H20.945L28.5113 13.4017L27.373 14.6543L20.8053 8.07402ZM25.5786 27.8228C24.91 26.8749 24.5207 25.7492 24.4657 24.5644C24.3895 22.9141 24.9566 21.3356 26.0696 20.1126L33.53 11.9116C34.7445 10.5744 36.4245 9.89734 38.1087 9.89734C39.1624 9.89734 40.2161 10.1639 41.164 10.7014L25.5786 27.8228Z" fill="#F8FAFC"/>
<path d="M43.4239 30.5319L45.599 32.4828C45.8571 32.7155 46.1829 32.8298 46.5046 32.8298C46.8769 32.8298 47.2451 32.6774 47.5117 32.3812C48.011 31.8226 47.9645 30.9678 47.4101 30.4685L45.2351 28.5177C44.6765 28.0184 43.8217 28.0649 43.3224 28.6193C42.823 29.1778 42.8696 30.0326 43.4239 30.5319Z" fill="#F8FAFC"/>
<path d="M41.228 24.9204L39.0529 22.9696C38.4944 22.4703 37.6395 22.5168 37.1402 23.0712C36.6409 23.6297 36.6875 24.4846 37.2418 24.9839L39.4169 26.9347C39.675 27.1674 40.0008 27.2817 40.3225 27.2817C40.6948 27.2817 41.063 27.1293 41.3296 26.8331C41.8332 26.2788 41.7866 25.4197 41.228 24.9204Z" fill="#F8FAFC"/>
<path d="M53.584 36.0125L51.4089 34.0616C50.8503 33.5623 49.9955 33.6088 49.4962 34.1632C48.9969 34.7218 49.0434 35.5766 49.5978 36.0759L51.7728 38.0267C52.031 38.2595 52.3568 38.3737 52.6784 38.3737C53.0508 38.3737 53.419 38.2214 53.6856 37.9252C54.1891 37.3708 54.1426 36.516 53.584 36.0125Z" fill="#F8FAFC"/>
<path d="M65.0857 46.3374L63.7697 45.1569C63.2112 44.6575 62.3563 44.7041 61.857 45.2584C61.3577 45.817 61.4043 46.6718 61.9586 47.1711L63.2746 48.3517C63.5327 48.5844 63.8586 48.6987 64.1802 48.6987C64.5526 48.6987 64.9207 48.5464 65.1873 48.2501C65.6867 47.6915 65.6401 46.8367 65.0857 46.3374Z" fill="#F8FAFC"/>
<path d="M59.7622 41.5603L57.5871 39.6095C57.0285 39.1101 56.1737 39.1567 55.6744 39.711C55.1751 40.2696 55.2216 41.1244 55.776 41.6237L57.9511 43.5746C58.2092 43.8073 58.535 43.9216 58.8566 43.9216C59.229 43.9216 59.5972 43.7692 59.8638 43.473C60.3674 42.9187 60.3208 42.0596 59.7622 41.5603Z" fill="#F8FAFC"/>
<path d="M70.9303 29.4737C71.4043 29.4737 71.8655 29.224 72.1109 28.7839C72.4791 28.1322 72.2463 27.307 71.5946 26.9389L69.0471 25.5086C68.3955 25.1447 67.5703 25.3732 67.2021 26.0249C66.834 26.6766 67.0667 27.5018 67.7184 27.8699L70.2659 29.3002C70.4775 29.4144 70.706 29.4737 70.9303 29.4737Z" fill="#F8FAFC"/>
<path d="M63.6891 25.407C64.1631 25.407 64.6243 25.1573 64.8697 24.7173C65.2378 24.0656 65.0051 23.2404 64.3534 22.8723L61.8059 21.442C61.1542 21.078 60.329 21.3066 59.9609 21.9582C59.5928 22.6099 59.8255 23.4351 60.4772 23.8032L63.0247 25.2335C63.2363 25.352 63.4648 25.407 63.6891 25.407Z" fill="#F8FAFC"/>
<path d="M46.001 15.6743L48.5485 17.1046C48.7601 17.2231 48.9844 17.2781 49.2087 17.2781C49.6826 17.2781 50.1439 17.0284 50.3893 16.5883C50.7574 15.9367 50.5247 15.1115 49.873 14.7434L47.3255 13.3131C46.6738 12.9491 45.8486 13.1777 45.4805 13.8293C45.1166 14.481 45.3493 15.3104 46.001 15.6743Z" fill="#F8FAFC"/>
<path d="M53.2407 19.7412L55.7883 21.1715C55.9998 21.29 56.2241 21.345 56.4484 21.345C56.9223 21.345 57.3836 21.0953 57.629 20.6552C57.9971 20.0036 57.7644 19.1784 57.1127 18.8103L54.5652 17.38C53.9135 17.016 53.0883 17.2445 52.7202 17.8962C52.3563 18.5479 52.5891 19.3731 53.2407 19.7412Z" fill="#F8FAFC"/>
<path d="M78.5803 30.8625L76.2825 29.5719C75.6308 29.2079 74.8056 29.4364 74.4375 30.0881C74.0693 30.7398 74.3021 31.565 74.9538 31.9331L77.2516 33.2238C77.4632 33.3422 77.6874 33.3973 77.9117 33.3973C78.3857 33.3973 78.8469 33.1476 79.0923 32.7075C79.4647 32.0516 79.232 31.2264 78.5803 30.8625Z" fill="#F8FAFC"/>
<path d="M44.1601 21.87C44.397 22.0351 44.6679 22.1112 44.9345 22.1112C45.3619 22.1112 45.785 21.9081 46.0473 21.5315C46.4747 20.9179 46.3224 20.0757 45.7088 19.6441L43.3137 17.9726C42.7001 17.5452 41.858 17.6975 41.4306 18.3111C41.0032 18.9247 41.1555 19.7669 41.7691 20.1985L44.1601 21.87Z" fill="#F8FAFC"/>
<path d="M48.2387 23.0626C47.8113 23.6762 47.9636 24.5184 48.5772 24.9457L50.9723 26.6173C51.2093 26.7823 51.4801 26.8585 51.7467 26.8585C52.1741 26.8585 52.5973 26.6554 52.8596 26.2787C53.287 25.6651 53.1347 24.823 52.5211 24.3914L50.126 22.7198C49.5124 22.2967 48.6661 22.449 48.2387 23.0626Z" fill="#F8FAFC"/>
<path d="M66.1473 33.8883L63.7522 32.2167C63.1386 31.7893 62.2964 31.9417 61.8691 32.5553C61.4417 33.1689 61.594 34.011 62.2076 34.4384L64.6027 36.1099C64.8397 36.275 65.1105 36.3511 65.3771 36.3511C65.8045 36.3511 66.2277 36.148 66.49 35.7714C66.9089 35.162 66.7609 34.3156 66.1473 33.8883Z" fill="#F8FAFC"/>
<path d="M55.0517 27.8063C54.6243 28.4199 54.7766 29.2621 55.3902 29.6937L57.7853 31.3652C58.0223 31.5303 58.2931 31.6064 58.5597 31.6064C58.9871 31.6064 59.4103 31.4033 59.6726 31.0267C60.1 30.4131 59.9477 29.571 59.3341 29.1394L56.939 27.4678C56.3212 27.0447 55.4791 27.1928 55.0517 27.8063Z" fill="#F8FAFC"/>
<path d="M72.2289 38.1282L70.5574 36.9645C69.9438 36.5371 69.1016 36.6895 68.6743 37.3031C68.2469 37.9167 68.3992 38.7588 69.0128 39.1904L70.6843 40.3541C70.9213 40.5191 71.1921 40.5953 71.4587 40.5953C71.8861 40.5953 72.3093 40.3922 72.5716 40.0156C72.9948 39.402 72.8425 38.5556 72.2289 38.1282Z" fill="#F8FAFC"/>
<path d="M40.3765 46.1976C39.9406 45.5883 39.0985 45.4486 38.4891 45.8802C37.8798 46.3161 37.7401 47.1582 38.1718 47.7676L39.8686 50.1458C40.131 50.5182 40.55 50.7128 40.9731 50.7128C41.2439 50.7128 41.519 50.6324 41.7559 50.4632C42.3653 50.0273 42.505 49.1852 42.0733 48.5758L40.3765 46.1976Z" fill="#F8FAFC"/>
<path d="M50.0166 59.7174C49.5807 59.108 48.7386 58.9684 48.1293 59.4C47.5199 59.8359 47.3803 60.678 47.8119 61.2874L49.3396 63.4329C49.6019 63.8052 50.0209 63.9999 50.444 63.9999C50.7148 63.9999 50.9899 63.9195 51.2269 63.7502C51.8362 63.3144 51.9759 62.4723 51.5442 61.8629L50.0166 59.7174Z" fill="#F8FAFC"/>
<path d="M30.7368 32.6769C30.301 32.0675 29.4588 31.9279 28.8495 32.3595C28.2401 32.7954 28.1005 33.6375 28.5321 34.2468L30.229 36.625C30.4914 36.9974 30.9103 37.1921 31.3334 37.1921C31.6043 37.1921 31.8793 37.1117 32.1163 36.9424C32.7257 36.5065 32.8653 35.6644 32.4337 35.0551L30.7368 32.6769Z" fill="#F8FAFC"/>
<path d="M45.1973 52.9554C44.7614 52.3461 43.9193 52.2064 43.3099 52.6381C42.7006 53.0739 42.5609 53.916 42.9926 54.5254L44.6894 56.9036C44.9518 57.276 45.3708 57.4706 45.7939 57.4706C46.0647 57.4706 46.3398 57.3902 46.5767 57.221C47.1861 56.7851 47.3258 55.943 46.8941 55.3336L45.1973 52.9554Z" fill="#F8FAFC"/>
<path d="M35.5571 39.4357C35.1213 38.8263 34.2792 38.6866 33.6698 39.1183C33.0604 39.5541 32.9208 40.3963 33.3524 41.0056L35.0493 43.3838C35.3117 43.7562 35.7306 43.9509 36.1537 43.9509C36.4246 43.9509 36.6996 43.8705 36.9366 43.7012C37.546 43.2653 37.6856 42.4232 37.254 41.8139L35.5571 39.4357Z" fill="#F8FAFC"/>
<path d="M35.6792 32.4234C35.9965 32.4234 36.3097 32.3134 36.5678 32.0891C37.1306 31.5983 37.1899 30.7434 36.699 30.1807L34.7821 27.9759C34.2912 27.4131 33.4364 27.3539 32.8736 27.8447C32.3108 28.3356 32.2515 29.1904 32.7424 29.7532L34.6593 31.958C34.9259 32.2669 35.3025 32.4234 35.6792 32.4234Z" fill="#F8FAFC"/>
<path d="M51.138 46.7642C50.6472 46.2014 49.7923 46.1422 49.2296 46.6331C48.6668 47.1239 48.6075 47.9788 49.0984 48.5415L51.0153 50.7463C51.2819 51.0552 51.6585 51.2118 52.0351 51.2118C52.3525 51.2118 52.6657 51.1018 52.9238 50.8775C53.4866 50.3866 53.5458 49.5318 53.055 48.969L51.138 46.7642Z" fill="#F8FAFC"/>
<path d="M40.2332 34.2391C39.7424 33.6763 38.8876 33.617 38.3248 34.1079C37.762 34.5988 37.7027 35.4536 38.1936 36.0164L40.1105 38.2211C40.3771 38.53 40.7537 38.6866 41.1304 38.6866C41.4477 38.6866 41.7609 38.5766 42.019 38.3523C42.5818 37.8615 42.6411 37.0066 42.1502 36.4439L40.2332 34.2391Z" fill="#F8FAFC"/>
<path d="M47.6043 42.7063L45.6873 40.5015C45.1965 39.9387 44.3417 39.8795 43.7789 40.3704C43.2161 40.8612 43.1568 41.7161 43.6477 42.2788L45.5646 44.4836C45.8312 44.7925 46.2078 44.9491 46.5845 44.9491C46.9018 44.9491 47.215 44.8391 47.4731 44.6148C48.0359 44.1239 48.0951 43.2691 47.6043 42.7063Z" fill="#F8FAFC"/>
<path d="M56.5882 53.0279C56.0974 52.4651 55.2425 52.4059 54.6798 52.8967C54.117 53.3876 54.0577 54.2424 54.5486 54.8052L55.8858 56.3413C56.1524 56.6502 56.529 56.8068 56.9057 56.8068C57.223 56.8068 57.5362 56.6968 57.7943 56.4725C58.3571 55.9817 58.4164 55.1268 57.9255 54.5641L56.5882 53.0279Z" fill="#F8FAFC"/>
</svg>
