<svg width="58" height="80" viewBox="0 0 58 80" fill="none" xmlns="http://www.w3.org/2000/svg">
<path d="M57.9642 12.7863V8.34489H56.2642C56.047 7.46212 55.6952 6.62764 55.2193 5.85522L56.4263 4.66896L53.2469 1.53098L52.0365 2.71725C51.2469 2.24138 50.3917 1.88965 49.4814 1.66552V0H45.002V1.66552C44.0952 1.88621 43.2434 2.23794 42.4503 2.71725L41.2468 1.53452L38.0743 4.67249L39.2744 5.85178C38.795 6.64144 38.4433 7.47589 38.2261 8.34489H36.526V12.7863H38.2192C38.2537 12.9242 38.3123 13.0483 38.3537 13.1828H31.2536C28.6501 10.9931 25.5914 9.70693 22.305 9.70693C19.0221 9.70693 15.9601 10.9931 13.3599 13.1828H4.05639C1.83914 13.1828 0.0356445 14.9621 0.0356445 17.1484V40.3758C0.0356445 41.8689 0.887375 43.1585 2.12533 43.8345C1.20116 44.5621 0.594261 45.6724 0.594261 46.9276V48.7035C0.594261 50.8897 2.39775 52.6725 4.615 52.6725H7.16329V62.0139C7.16329 62.1656 7.21156 62.3105 7.30467 62.4312L14.2875 71.6137L9.62891 78.6207H5.83574C5.45643 78.6207 5.14608 78.931 5.14608 79.3103C5.14608 79.6897 5.45643 80 5.83574 80H9.99782C10.0047 80 10.0116 79.9931 10.022 79.9931H34.5841C34.5944 79.9931 34.6013 80 34.6117 80H38.7737C39.1531 80 39.4634 79.6897 39.4634 79.3103C39.4634 78.931 39.1531 78.6207 38.7737 78.6207H34.9806L30.3288 71.6171L37.3047 62.4346C37.3944 62.3139 37.4461 62.1691 37.4461 62.0173V52.6759H39.9978C42.2151 52.6759 44.022 50.8966 44.022 48.7069V46.931C44.022 45.6758 43.4151 44.5655 42.4875 43.8379C43.7254 43.162 44.5772 41.8723 44.5772 40.3792V19.327C44.722 19.3684 44.8565 19.4304 45.0048 19.4649V21.1304H49.4841V19.458C50.3875 19.2442 51.2428 18.8925 52.0393 18.4132L53.2428 19.5959L56.4256 16.4717L55.2187 15.2854C55.6945 14.5096 56.0463 13.6717 56.2704 12.7889L57.9642 12.7863ZM37.9192 32.6591C37.9192 36.2523 37.2434 39.7971 35.9916 42.9628H32.3743C34.2985 39.8042 35.3536 35.8938 35.3536 31.7905C35.3536 22.1004 29.5019 14.2146 22.3055 14.2146C15.1123 14.2146 9.25726 22.0974 9.25726 31.7905C9.25726 35.8939 10.3124 39.8043 12.2366 42.9628H8.61585C7.36752 39.7973 6.69168 36.2523 6.69168 32.6591C6.69168 20.7621 13.6952 11.0861 22.3025 11.0861C30.9164 11.0861 37.9192 20.7656 37.9192 32.6591ZM13.8841 42.9628C11.7944 39.9076 10.6392 35.9593 10.6392 31.7905C10.6392 22.8595 15.8738 15.5935 22.3085 15.5935C28.7433 15.5935 33.9778 22.8591 33.9778 31.7905C33.9778 35.963 32.8227 39.9078 30.733 42.9628H13.8841ZM4.05273 42.9662C2.59413 42.9662 1.41131 41.8042 1.41131 40.3766V17.1492C1.41131 15.7216 2.59758 14.5629 4.05273 14.5629H11.8907C7.89763 18.7664 5.31138 25.308 5.31138 32.6597C5.31138 36.239 5.96656 39.7701 7.15275 42.9633H4.6079C4.59066 42.9633 4.57687 42.9668 4.55963 42.9668L4.05272 42.9702L4.05273 42.9662ZM36.0672 61.7869L28.9361 71.1733C28.7568 71.4078 28.7499 71.7285 28.9085 71.9733L33.3223 78.6147H11.2911L15.705 71.9733C15.867 71.7285 15.8567 71.4078 15.6774 71.1733L10.3704 64.1974L11.7808 62.594L13.6843 63.7423C13.6946 63.7492 13.7084 63.7457 13.7187 63.7526C13.8153 63.8078 13.9222 63.8457 14.0429 63.8457H14.0808L17.0256 63.6905L18.5153 65.0078C18.6463 65.1251 18.8084 65.1802 18.9705 65.1802C19.1601 65.1802 19.3498 65.1009 19.4877 64.9457C19.7395 64.6595 19.7119 64.225 19.4257 63.9733L18.4498 63.1112L20.6946 61.8457C21.0257 61.6595 21.1429 61.2388 20.9567 60.9077C20.7705 60.5767 20.3498 60.456 20.0188 60.6456L17.0705 62.3077L14.2153 62.4595L12.698 61.5456C12.8152 61.4077 12.8738 61.2284 12.8566 61.0456L12.629 58.4559L16.1807 57.7421C16.6256 58.3283 17.4877 59.4663 17.5601 59.5663C17.6946 59.7559 17.9049 59.8559 18.1221 59.8559C18.2601 59.8559 18.398 59.8146 18.5221 59.7284C18.8325 59.5077 18.9049 59.0766 18.6842 58.7663C18.6118 58.6629 17.0221 56.5628 17.0221 56.5628C16.8635 56.3525 16.5945 56.2559 16.3359 56.3042L12.76 57.0249L13.1359 55.0593C13.2083 54.6869 12.9635 54.3248 12.5876 54.2524C12.2152 54.18 11.8531 54.4249 11.7807 54.8007L11.2117 57.7663C11.1979 57.8284 11.1979 57.8939 11.2014 57.9559L11.46 60.8767L9.51518 63.087L8.5324 61.7974V52.6872H36.0606L36.0641 61.7877L36.0672 61.7869ZM42.6431 48.7078C42.6431 50.1354 41.4568 51.2975 39.9982 51.2975H4.61161C3.15646 51.2975 1.9702 50.1354 1.9702 48.7078V46.9319C1.9702 45.5215 3.12883 44.3733 4.56332 44.3457H40.0462C41.4807 44.3732 42.6427 45.5181 42.6427 46.9319L42.6393 48.7078H42.6431ZM43.1983 40.3801C43.1983 41.8077 42.012 42.9698 40.5569 42.9698H40.0465C40.0293 42.9698 40.0155 42.9663 39.9982 42.9663H37.4534C38.6465 39.7697 39.3017 36.2421 39.3017 32.6627C39.3017 25.3109 36.7189 18.7697 32.7224 14.5659H38.9086C39.0293 14.8073 39.1397 15.0556 39.2811 15.2866L38.0776 16.4729L41.2535 19.6005L42.457 18.4178C42.6949 18.5626 42.9501 18.673 43.2018 18.7937L43.1983 40.3801ZM55.143 11.4077L55.0395 11.9697C54.8326 13.0629 54.4051 14.0766 53.7671 14.9801L53.4292 15.4595L54.4568 16.4698L53.243 17.6629L52.2051 16.6423L51.7361 16.9664C50.8154 17.6044 49.7878 18.025 48.6809 18.2147L48.1085 18.3113V19.7492H46.3878L46.3844 18.332L45.8188 18.2285C44.7016 18.0285 43.674 17.6044 42.7602 16.9699L42.2913 16.6457L41.2567 17.6664L40.0464 16.4732L41.0774 15.4595L40.7361 14.9801C40.0947 14.0767 39.6637 13.0629 39.4568 11.9697L39.3499 11.4076H37.9119V9.72492H39.3671L39.4705 9.15595C39.6636 8.09389 40.0878 7.08003 40.7326 6.14553L41.0637 5.66967L40.0465 4.66967L41.2603 3.46964L42.2948 4.48685L42.7637 4.1627C43.681 3.52822 44.7086 3.10409 45.8224 2.90405L46.3879 2.8006L46.3844 1.37988H48.1051V2.8006L48.6706 2.90405C49.7879 3.10405 50.8189 3.53165 51.7328 4.1627L52.2017 4.48685L53.2397 3.46964L54.457 4.66967L53.4259 5.68344L53.7673 6.16276C54.4086 7.05929 54.8293 8.06618 55.0259 9.15587L55.1294 9.72484H56.5845V11.4076L55.143 11.4077Z" fill="#F8FAFC"/>
<path d="M47.2473 5.56494C44.4472 5.56494 42.1714 7.80982 42.1714 10.5719C42.1714 13.3306 44.4472 15.5789 47.2473 15.5789C50.0439 15.5789 52.3232 13.334 52.3232 10.5719C52.3198 7.80982 50.0439 5.56494 47.2473 5.56494ZM47.2473 14.196C45.2093 14.196 43.5507 12.5684 43.5507 10.5684C43.5507 8.56838 45.2093 6.94073 47.2473 6.94073C49.2853 6.94073 50.9439 8.56838 50.9439 10.5684C50.9404 12.5718 49.2818 14.196 47.2473 14.196Z" fill="#F8FAFC"/>
</svg>
